<svg id="Layer_3" enable-background="new 0 0 64 64" height="512" viewBox="0 0 64 64" width="512" xmlns="http://www.w3.org/2000/svg"><g><path d="m37 45h-8c-1.654 0-3 1.346-3 3v8c0 1.654 1.346 3 3 3h8c1.654 0 3-1.346 3-3v-8c0-1.654-1.346-3-3-3zm1 11c0 .551-.448 1-1 1h-8c-.552 0-1-.449-1-1v-8c0-.551.448-1 1-1h8c.552 0 1 .449 1 1z"/><path d="m21 45h-8c-1.654 0-3 1.346-3 3v8c0 1.654 1.346 3 3 3h8c1.654 0 3-1.346 3-3v-8c0-1.654-1.346-3-3-3zm1 11c0 .551-.448 1-1 1h-8c-.552 0-1-.449-1-1v-8c0-.551.448-1 1-1h8c.552 0 1 .449 1 1z"/><path d="m37 29h-8c-1.654 0-3 1.346-3 3v8c0 1.654 1.346 3 3 3h8c1.654 0 3-1.346 3-3v-8c0-1.654-1.346-3-3-3zm1 11c0 .551-.448 1-1 1h-8c-.552 0-1-.449-1-1v-8c0-.551.448-1 1-1h8c.552 0 1 .449 1 1z"/><path d="m21 29h-8c-1.654 0-3 1.346-3 3v8c0 1.654 1.346 3 3 3h8c1.654 0 3-1.346 3-3v-8c0-1.654-1.346-3-3-3zm1 11c0 .551-.448 1-1 1h-8c-.552 0-1-.449-1-1v-8c0-.551.448-1 1-1h8c.552 0 1 .449 1 1z"/><path d="m18 33h-2v2h-2v2h2v2h2v-2h2v-2h-2z"/><path d="m30 35h6v2h-6z"/><path d="m19.293 48.293-2.293 2.293-2.293-2.293-1.414 1.414 2.293 2.293-2.293 2.293 1.414 1.414 2.293-2.293 2.293 2.293 1.414-1.414-2.293-2.293 2.293-2.293z"/><path d="m28.757 51h8.485v2h-8.485z" transform="matrix(.707 -.707 .707 .707 -27.104 38.565)"/><path d="m30 49h2v2h-2z"/><path d="m34 53h2v2h-2z"/><path d="m53 1h-42c-2.757 0-5 2.243-5 5v52c0 2.757 2.243 5 5 5h42c2.757 0 5-2.243 5-5v-52c0-2.757-2.243-5-5-5zm3 57c0 1.654-1.346 3-3 3h-42c-1.654 0-3-1.346-3-3v-52c0-1.654 1.346-3 3-3h42c1.654 0 3 1.346 3 3z"/><path d="m53 5h-42c-.553 0-1 .448-1 1v12c0 .552.447 1 1 1h42c.553 0 1-.448 1-1v-12c0-.552-.447-1-1-1zm-1 12h-40v-10h40z"/><path d="m21 24c0-2.206-1.794-4-4-4s-4 1.794-4 4 1.794 4 4 4 4-1.794 4-4zm-6 0c0-1.103.897-2 2-2s2 .897 2 2-.897 2-2 2-2-.897-2-2z"/><path d="m31 24c0-2.206-1.794-4-4-4s-4 1.794-4 4 1.794 4 4 4 4-1.794 4-4zm-6 0c0-1.103.897-2 2-2s2 .897 2 2-.897 2-2 2-2-.897-2-2z"/><path d="m37 20c-2.206 0-4 1.794-4 4s1.794 4 4 4 4-1.794 4-4-1.794-4-4-4zm0 6c-1.103 0-2-.897-2-2s.897-2 2-2 2 .897 2 2-.897 2-2 2z"/><path d="m51 24c0-2.206-1.794-4-4-4s-4 1.794-4 4 1.794 4 4 4 4-1.794 4-4zm-6 0c0-1.103.897-2 2-2s2 .897 2 2-.897 2-2 2-2-.897-2-2z"/><path d="m51 29h-6c-1.654 0-3 1.346-3 3v24c0 1.654 1.346 3 3 3h6c1.654 0 3-1.346 3-3v-24c0-1.654-1.346-3-3-3zm1 27c0 .551-.448 1-1 1h-6c-.552 0-1-.449-1-1v-24c0-.551.448-1 1-1h6c.552 0 1 .449 1 1z"/><path d="m45 41h6v2h-6z"/><path d="m45 45h6v2h-6z"/></g></svg>