<svg id="Layer_3" enable-background="new 0 0 64 64" height="512" viewBox="0 0 64 64" width="512" xmlns="http://www.w3.org/2000/svg"><g><path d="m39.307 55.51c-2.496-.38-4.307-2.462-4.307-4.95v-11.9c6.423-1.392 11-7.006 11-13.66 0-1.319-.186-2.626-.554-3.887-.973-3.341-1.446-7.083-1.446-11.44v-7.673c0-.552-.448-1-1-1h-22c-.552 0-1 .448-1 1v7.677c0 3.776-.53 7.784-1.576 11.911-.426 1.682-.532 3.423-.315 5.173.729 5.874 5.152 10.658 10.891 11.907v11.892c0 2.488-1.811 4.57-4.307 4.95-6.693 1.019-6.693 2.879-6.693 3.49 0 3.888 12.567 4 14 4s14-.112 14-4c0-.611 0-2.471-6.693-3.49zm-2.723-47.699c.262-.188.416-.49.416-.811v-4h1v6.719l-2.757-.689c-.51-.127-1.026.158-1.191.654l-1.635 4.906-.969-.484c-.476-.239-1.052-.063-1.315.398l-1.227 2.146.762-4.569.626.626c.245.246.601.345.937.266.337-.08.609-.328.719-.657l1.684-5.051 2.051.684c.303.1.638.05.899-.138zm-4.584 53.189c-6.913 0-11.207-1.228-11.939-1.994.336-.316 1.647-1.019 4.934-1.52 3.479-.529 6.005-3.442 6.005-6.926v-12.723c0-.494-.36-.913-.848-.988-5.268-.809-9.403-5.058-10.058-10.334-.186-1.503-.096-2.996.269-4.436 1.086-4.287 1.637-8.46 1.637-12.402v-6.677h13v2.613l-1.684-.562c-.525-.175-1.091.109-1.265.632l-1.488 4.465-.856-.856c-.265-.266-.657-.361-1.012-.245-.357.114-.62.418-.681.788l-2 12c-.08.478.194.944.651 1.106.11.04.223.059.335.059.351 0 .686-.185.868-.504l3.531-6.179 1.154.577c.26.13.562.14.83.029s.474-.333.566-.607l1.707-5.122 3.102.775c.299.075.616.008.858-.182.242-.188.384-.479.384-.787v-8h2v6.673c0 4.549.499 8.475 1.526 12 .315 1.078.474 2.198.474 3.327 0 5.95-4.27 10.93-10.153 11.841-.488.075-.847.495-.847.988v12.73c0 3.484 2.526 6.397 6.006 6.927 3.286.501 4.598 1.203 4.934 1.52-.733.766-5.027 1.994-11.94 1.994z"/><path d="m42 25h-2c0 4.411-3.589 8-8 8v2c5.514 0 10-4.486 10-10z"/><path d="m9.8 53.4c-.189-.252-.485-.4-.8-.4h-5c-.334 0-.646.167-.832.445l-2 3c-.109.164-.168.358-.168.555v3c0 .446.296.839.725.962l7 2c.091.025.184.038.275.038.31 0 .608-.144.8-.4l3-4c.267-.355.267-.844 0-1.199zm-1.187 7.45-5.613-1.604v-1.943l1.535-2.303h3.965l2.25 3z"/><path d="m18.8 47.4-3-4c-.189-.252-.485-.4-.8-.4h-5c-.334 0-.646.167-.832.445l-2 3c-.109.164-.168.358-.168.555v3c0 .446.296.839.725.962l7 2c.091.025.184.038.275.038.31 0 .608-.144.8-.4l3-4c.267-.356.267-.844 0-1.2zm-4.187 3.45-5.613-1.604v-1.943l1.535-2.303h3.965l2.25 3z"/><path d="m62.832 56.445-2-3c-.186-.278-.498-.445-.832-.445h-5c-.315 0-.611.148-.8.4l-3 4c-.267.355-.267.844 0 1.199l3 4c.192.257.49.4.8.4.091 0 .184-.013.275-.038l7-2c.429-.122.725-.515.725-.961v-3c0-.197-.059-.391-.168-.555zm-1.832 2.801-5.613 1.604-2.137-2.85 2.25-3h3.965l1.535 2.303z"/><path d="m44.2 45.4-3 4c-.267.355-.267.844 0 1.199l3 4c.192.257.49.4.8.4.091 0 .184-.013.275-.038l7-2c.429-.122.725-.515.725-.961v-3c0-.197-.059-.391-.168-.555l-2-3c-.186-.278-.498-.445-.832-.445h-5c-.315 0-.611.148-.8.4zm5.265 1.6 1.535 2.303v1.943l-5.613 1.604-2.137-2.85 2.25-3z"/></g></svg>