<svg id="Layer_3" enable-background="new 0 0 64 64" height="512" viewBox="0 0 64 64" width="512" xmlns="http://www.w3.org/2000/svg"><g><path d="m57.361 38.053 5.346-5.346c.391-.391.391-1.023 0-1.414l-5.346-5.346 5.397-6.297c.217-.252.294-.597.205-.917-.089-.321-.332-.577-.647-.682l-7.781-2.594 1.439-6.234c.077-.336-.023-.688-.268-.932s-.601-.342-.932-.268l-6.234 1.439-2.594-7.781c-.104-.315-.36-.559-.682-.647-.322-.09-.666-.014-.917.205l-6.297 5.397-5.346-5.346c-.391-.391-1.023-.391-1.414 0l-5.346 5.346-6.294-5.395c-.252-.219-.597-.295-.917-.205-.321.089-.577.332-.682.647l-2.594 7.781-6.232-1.439c-.334-.074-.689.024-.932.268-.244.244-.345.596-.268.932l1.439 6.234-7.781 2.594c-.315.104-.559.36-.647.682-.089.32-.012.665.205.917l5.397 6.297-5.346 5.346c-.391.391-.391 1.023 0 1.414l5.346 5.346-5.397 6.295c-.217.252-.294.597-.205.917.089.321.332.577.647.682l7.781 2.594-1.439 6.234c-.077.336.023.688.268.932.243.243.598.342.932.268l12.46-2.876 2.315 2.313v4.479c0 1.516 1.076 2.835 2.503 3.067.165.026.329.04.493.04.711 0 1.4-.249 1.946-.714.361-.307.631-.693.812-1.118l1.539 1.539c.195.195.451.293.707.293s.512-.098.707-.293l5.346-5.346 6.297 5.397c.182.159.415.242.65.242.089 0 .179-.012.267-.036.321-.089.577-.332.682-.647l2.594-7.781 6.234 1.439c.331.074.688-.024.932-.268s.345-.596.268-.932l-1.439-6.234 7.781-2.594c.315-.104.559-.36.647-.682.089-.32.012-.665-.205-.917zm2.911-18.574-4.329 5.051-2.845-2.845.985-4.269zm-15.751-15.751 2.063 6.188-4.269.985-2.845-2.845zm-25.042 0 5.051 4.329-2.845 2.845-4.269-.985zm-15.751 15.751 6.188-2.063.985 4.269-2.845 2.845zm0 25.042 4.329-5.051 2.845 2.845-.985 4.269zm24.272 15.479c0 .294-.129.572-.353.763-.228.192-.521.271-.822.223-.463-.076-.825-.555-.825-1.093v-11.178c0-1.104-.596-2.109-1.557-2.625-1-.535-1.94-1.176-2.795-1.903-.185-.157-.415-.238-.648-.238-.143 0-.285.03-.419.092-.354.163-.581.518-.581.907v2.052c0 .554-.222 1.068-.623 1.45-.402.382-.921.576-1.485.547-1.043-.055-1.892-1.026-1.892-2.167v-14.385c0-4.417 1.826-8.742 5.01-11.866 3.087-3.029 7.077-4.649 11.297-4.576 8.653.162 15.693 7.338 15.693 15.997 0 8.822-7.178 16-16 16-.293 0-.585-.009-.872-.026-.817-.051-1.581.231-2.177.792-.604.568-.951 1.371-.951 2.202zm16.521.272-5.051-4.329 2.845-2.845 4.269.985zm-2.296-9.247c-.334-.076-.688.023-.932.268l-9.293 9.293-2-2v-7.618c0-.281.117-.553.321-.745.189-.179.422-.269.686-.253.328.019.659.03.993.03 9.925 0 18-8.075 18-18 0-9.741-7.921-17.814-17.656-17.997-4.736-.083-9.262 1.739-12.735 5.148-3.565 3.498-5.609 8.344-5.609 13.294v14.385c0 2.224 1.663 4.054 3.787 4.165 1.117.052 2.163-.331 2.967-1.094.792-.752 1.246-1.809 1.246-2.901v-.046c.484.323.984.623 1.499.898.309.167.501.497.501.863v3.871l-1.293-1.293c-.244-.244-.601-.344-.932-.268l-11.441 2.641 2.641-11.441c.077-.336-.023-.688-.268-.932l-9.293-9.293 9.293-9.293c.244-.244.345-.596.268-.932l-2.641-11.441 11.441 2.641c.331.074.688-.024.932-.268l9.293-9.293 9.293 9.293c.243.243.598.342.932.268l11.441-2.641-2.641 11.441c-.077.336.023.688.268.932l9.293 9.293-9.293 9.293c-.244.244-.345.596-.268.932l2.641 11.441zm11.859-4.44-.985-4.269 2.845-2.845 4.329 5.051z"/><path d="m18 55c-1.654 0-3 1.346-3 3v2c0 1.654 1.346 3 3 3s3-1.346 3-3v-2c0-1.654-1.346-3-3-3zm1 5c0 .552-.448 1-1 1s-1-.448-1-1v-2c0-.552.448-1 1-1s1 .448 1 1z"/><path d="m44 32h2c0-7.72-6.28-14-14-14v2c6.617 0 12 5.383 12 12z"/></g></svg>