<?xml version="1.0" encoding="utf-8"?>
<!-- Generator: Adobe Illustrator 25.0.0, SVG Export Plug-In . SVG Version: 6.00 Build 0)  -->
<svg version="1.1" id="Layer_3" xmlns="http://www.w3.org/2000/svg" xmlns:xlink="http://www.w3.org/1999/xlink" x="0px" y="0px"
	 viewBox="0 0 512 512" style="enable-background:new 0 0 512 512;" xml:space="preserve">
<style type="text/css">
	.st0{opacity:0;fill:#F6DFC1;}
	.st1{fill:#FFFFFF;}
</style>
<circle class="st0" cx="372.6" cy="372.4" r="128"/>
<path class="st1" d="M-113.9,156.1l-3.4-1l17.6-17.6c42.2-42.2,42.2-111,0-153.2c-34-34-87.2-41.5-129.2-18.1l-23.6,13.1
	C-295,2.9-333.9,32.2-368.2,66.5c-25.8,25.8-48.9,54.4-68.7,85l-15.9,4.5c-46.3,13.2-78.6,56-78.6,104.2
	c0,59.7,48.6,108.3,108.3,108.3h279.4c59.7,0,108.3-48.6,108.3-108.3C-35.4,212.1-67.7,169.3-113.9,156.1L-113.9,156.1z
	 M-116.2,172.1c-1,21.2-2.9,42.4-5.9,63.4c-0.2,1.2-2.3,1.2-2.4,0c-3.2-22.3-5.2-45-6.1-67.6l12.4,3.5
	C-117.6,171.7-116.9,171.9-116.2,172.1L-116.2,172.1z M-221.2-19.8c0.6-0.4,1.3-0.6,2-1c14.3,15.7,28,32.1,40.6,49
	c0.4,0.5,0.3,1.2-0.1,1.6c-0.4,0.4-1.1,0.5-1.6,0.1c-18-13.5-35.5-28.1-52.1-43.4L-221.2-19.8z M-247.1-5.4
	c18.2,17,37.4,33.1,57.2,48c3.1,2.3,6.7,3.4,10.3,3.4c4.4,0,8.9-1.7,12.2-5c6-6,6.7-15.7,1.6-22.5c-11.8-15.8-24.6-31-37.8-45.8
	c32.2-9.9,68.1-1.6,92.5,22.8c36,36,36,94.6,0,130.6l-23.9,23.9l-5-1.4c-44.6-12.8-90.8-19.3-137.1-19.9
	c-14.6-17.8-30.1-35.1-46.3-51.3l-16.1-16.1c7.9-7.2,16-14.2,24.4-20.8l3,3c23.1,23.1,48,44.7,74.1,64.2c3.1,2.3,6.7,3.4,10.3,3.4
	c4.4,0,8.9-1.7,12.2-5c6-6,6.7-15.7,1.6-22.5c-18.9-25.2-39.7-49.2-61.9-71.6C-266.4,5.9-256.9,0.1-247.1-5.4L-247.1-5.4z
	 M-211.4,149.7c5.3,0.8,10.7,1.6,16,2.5c0,31.8-2.3,63.8-6.8,95.2c-0.2,1.2-2.3,1.2-2.4,0c-4.5-31.5-6.8-63.7-6.8-95.5V149.7z
	 M-291.4,144.7c2.7,0,5.3-0.1,8-0.1s5.3,0.1,8,0.1V168c0,31.8-2.3,64-6.8,95.5c-0.2,1.2-2.3,1.2-2.4,0c-4.5-31.5-6.8-63.7-6.8-95.5
	V144.7z M-289.2,21.1c22.4,22.5,43.5,46.7,62.5,72.1c0.4,0.5,0.3,1.2-0.1,1.6s-1.1,0.5-1.6,0.1c-25.5-19.1-49.8-40.2-72.3-62.7
	l-1.6-1.6C-298,27.4-293.6,24.2-289.2,21.1z M-351.1,72.3l16.5,16.5c12.8,12.8,24.9,26.3,36.7,40.1c-5.5,0.2-11,0.4-16.4,0.7
	c-10.8-9.5-21.4-19.4-31.6-29.6l-16.4-16.4c1.9-1.9,3.6-3.9,5.5-5.8C-355,76-353,74.1-351.1,72.3L-351.1,72.3z M-402.5,134
	c2.3,2.3,4.4,4.6,6.6,6.9c-5.8,1.3-11.5,2.6-17.2,4.1c3-4.2,6-8.4,9.1-12.5L-402.5,134z M-377.3,137.1c-4.6-4.9-9.2-9.7-13.9-14.4
	l-3-3c6.7-8.4,13.7-16.5,20.9-24.4l16.1,16.1c6.8,6.8,13.8,13.4,20.9,20C-350.1,132.7-363.7,134.7-377.3,137.1z M-355.4,149.7v2.3
	c0,31.8-2.3,64-6.8,95.5c-0.2,1.2-2.3,1.2-2.4,0c-4.5-31.4-6.8-63.5-6.8-95.2C-366,151.3-360.7,150.5-355.4,149.7L-355.4,149.7z
	 M-436,167.9c-0.9,22.6-3,45.3-6.1,67.6c-0.2,1.2-2.3,1.2-2.4,0c-3-20.9-4.9-42.2-5.9-63.4c0.7-0.2,1.4-0.5,2.1-0.7L-436,167.9z
	 M-143.7,352.5H-423c-50.9,0-92.3-41.4-92.3-92.3c0-34.5,19.5-65.7,49.1-81.5c1.1,19.7,3,39.5,5.8,59c1.2,8.4,8.5,14.8,17,14.8
	s15.8-6.4,17-14.8c3.5-24.6,5.6-49.6,6.5-74.4c10.8-3,21.6-5.7,32.5-8c0.2,31.5,2.4,63.2,6.9,94.4c1.2,8.4,8.5,14.8,17,14.8
	c8.5,0,15.8-6.4,17-14.8c4.6-32.3,7-65.2,7-97.8v-4.3c10.6-1.2,21.3-2,32-2.5V168c0,32.6,2.3,65.5,7,97.8c1.2,8.4,8.5,14.8,17,14.8
	s15.8-6.4,17-14.8c4.6-32.3,7-65.2,7-97.8v-22.8c10.7,0.5,21.4,1.3,32,2.5v4.3c0,32.6,2.3,65.5,7,97.8c1.2,8.4,8.5,14.8,17,14.8
	s15.8-6.4,17-14.8c4.5-31.2,6.7-62.9,6.9-94.4c10.9,2.3,21.8,5,32.5,8c0.8,24.9,3,49.9,6.5,74.4c1.2,8.4,8.5,14.8,17,14.8
	s15.8-6.4,17-14.8c2.8-19.5,4.7-39.3,5.8-59c29.6,15.8,49.1,47,49.1,81.5C-51.4,311.1-92.8,352.5-143.7,352.5L-143.7,352.5z"/>
<g>
	<path class="st1" d="M455.3,303.7l42.1-42.1c3.1-3.1,3.1-8.1,0-11.1l-42.1-42.1l42.6-49.6c1.7-2,2.3-4.7,1.6-7.2
		c-0.7-2.5-2.6-4.5-5.1-5.4l-61.3-20.5l11.3-49.1c0.6-2.6-0.2-5.4-2.1-7.3s-4.7-2.7-7.3-2.1l-49.1,11.3l-20.5-61.3
		c-0.8-2.5-2.8-4.4-5.4-5.1c-2.5-0.7-5.3-0.1-7.2,1.6L303.1,56L261,13.8c-3.1-3.1-8.1-3.1-11.1,0L207.7,56L158,13.4
		c-2-1.7-4.7-2.3-7.2-1.6c-2.5,0.7-4.5,2.6-5.4,5.1L125,78.3L75.8,66.9c-2.6-0.6-5.4,0.2-7.3,2.1c-1.9,1.9-2.7,4.7-2.1,7.3
		l11.3,49.1L16.4,146c-2.5,0.8-4.4,2.8-5.1,5.4c-0.7,2.5-0.1,5.2,1.6,7.2l42.6,49.6l-42.1,42.1c-3.1,3.1-3.1,8.1,0,11.1l42.1,42.1
		l-42.6,49.6c-1.7,2-2.3,4.7-1.6,7.2c0.7,2.5,2.6,4.5,5.1,5.4l61.3,20.5l-11.3,49.1c-0.6,2.6,0.2,5.4,2.1,7.3
		c1.9,1.9,4.7,2.7,7.3,2.1l98.2-22.7l18.3,18.2v35.3c0,12,8.5,22.4,19.7,24.2c1.3,0.2,2.6,0.3,3.9,0.3c5.6,0,11-2,15.3-5.6
		c2.8-2.4,5-5.5,6.4-8.8l12.1,12.1c1.5,1.5,3.6,2.3,5.6,2.3c2,0,4-0.8,5.6-2.3l42.1-42.1l49.6,42.6c1.4,1.3,3.3,1.9,5.1,1.9
		c0.7,0,1.4-0.1,2.1-0.3c2.5-0.7,4.5-2.6,5.4-5.1l20.5-61.3L435,445c2.6,0.6,5.4-0.2,7.3-2.1c1.9-1.9,2.7-4.7,2.1-7.3l-11.3-49.1
		l61.3-20.5c2.5-0.8,4.4-2.8,5.1-5.4c0.7-2.5,0.1-5.2-1.6-7.2L455.3,303.7z M478.3,157.2l-34.1,39.8l-22.4-22.4l7.8-33.7
		L478.3,157.2z M354.1,33.1l16.3,48.8l-33.7,7.8l-22.4-22.4L354.1,33.1z M156.7,33.1l39.8,34.1l-22.4,22.4l-33.7-7.8L156.7,33.1z
		 M32.5,157.2L81.3,141l7.8,33.7l-22.4,22.4L32.5,157.2z M32.5,354.7l34.1-39.8l22.4,22.4l-7.8,33.7L32.5,354.7z M223.9,476.7
		c0,2.3-1,4.5-2.8,6c-1.8,1.5-4.1,2.1-6.5,1.8c-3.7-0.6-6.5-4.4-6.5-8.6v-88.1c0-8.7-4.7-16.6-12.3-20.7c-7.9-4.2-15.3-9.3-22-15
		c-1.5-1.2-3.3-1.9-5.1-1.9c-1.1,0-2.2,0.2-3.3,0.7c-2.8,1.3-4.6,4.1-4.6,7.2v16.2c0,4.4-1.8,8.4-4.9,11.4c-3.2,3-7.3,4.5-11.7,4.3
		c-8.2-0.4-14.9-8.1-14.9-17.1V259.5c0-34.8,14.4-68.9,39.5-93.6c24.3-23.9,55.8-36.7,89.1-36.1c68.2,1.3,123.7,57.9,123.7,126.1
		c0,69.6-56.6,126.1-126.1,126.1c-2.3,0-4.6-0.1-6.9-0.2c-6.4-0.4-12.5,1.8-17.2,6.2c-4.8,4.5-7.5,10.8-7.5,17.4V476.7z
		 M354.1,478.9l-39.8-34.1l22.4-22.4l33.7,7.8L354.1,478.9z M336,405.9c-2.6-0.6-5.4,0.2-7.3,2.1l-73.3,73.3l-15.8-15.8v-60.1
		c0-2.2,0.9-4.4,2.5-5.9c1.5-1.4,3.3-2.1,5.4-2c2.6,0.1,5.2,0.2,7.8,0.2c78.2,0,141.9-63.7,141.9-141.9
		c0-76.8-62.4-140.4-139.2-141.9c-37.3-0.7-73,13.7-100.4,40.6c-28.1,27.6-44.2,65.8-44.2,104.8v113.4c0,17.5,13.1,32,29.9,32.8
		c8.8,0.4,17.1-2.6,23.4-8.6c6.2-5.9,9.8-14.3,9.8-22.9v-0.4c3.8,2.5,7.8,4.9,11.8,7.1c2.4,1.3,3.9,3.9,3.9,6.8v30.5l-10.2-10.2
		c-1.9-1.9-4.7-2.7-7.3-2.1l-90.2,20.8l20.8-90.2c0.6-2.6-0.2-5.4-2.1-7.3L30,256l73.3-73.3c1.9-1.9,2.7-4.7,2.1-7.3L84.6,85.1
		l90.2,20.8c2.6,0.6,5.4-0.2,7.3-2.1l73.3-73.3l73.3,73.3c1.9,1.9,4.7,2.7,7.3,2.1l90.2-20.8l-20.8,90.2c-0.6,2.6,0.2,5.4,2.1,7.3
		l73.3,73.3l-73.3,73.3c-1.9,1.9-2.7,4.7-2.1,7.3l20.8,90.2L336,405.9z M429.5,370.9l-7.8-33.7l22.4-22.4l34.1,39.8L429.5,370.9z"/>
	<path class="st1" d="M145,437.3c-13,0-23.7,10.6-23.7,23.7v15.8c0,13,10.6,23.7,23.7,23.7s23.7-10.6,23.7-23.7v-15.8
		C168.7,447.9,158.1,437.3,145,437.3z M152.9,476.7c0,4.4-3.5,7.9-7.9,7.9c-4.4,0-7.9-3.5-7.9-7.9v-15.8c0-4.4,3.5-7.9,7.9-7.9
		c4.4,0,7.9,3.5,7.9,7.9V476.7z"/>
	<path class="st1" d="M350,256h15.8c0-60.9-49.5-110.4-110.4-110.4v15.8C307.6,161.3,350,203.8,350,256z"/>
</g>
</svg>
