<svg height="512" viewBox="0 0 60 60" width="512" xmlns="http://www.w3.org/2000/svg"><g id="Page-1" fill="none" fill-rule="evenodd"><g id="032---Gift-Box" fill="rgb(0,0,0)" fill-rule="nonzero"><path id="Shape" d="m53.878 1.464c-.9354938-.94056895-2.2084237-1.46774556-3.535-1.464h-40.686c-1.32657629-.00374556-2.59950615.52343105-3.535 1.464l-4.658 4.658c-.94056895.93549385-1.46774556 2.20842371-1.464 3.535v40.686c-.00374556 1.3265763.52343105 2.5995062 1.464 3.535l4.658 4.658c.93549385.940569 2.20842371 1.4677456 3.535 1.464h40.686c1.3265763.0037456 2.5995062-.523431 3.535-1.464l4.658-4.658c.940569-.9354938 1.4677456-2.2084237 1.464-3.535v-40.686c.0037456-1.32657629-.523431-2.59950615-1.464-3.535zm-1.414 1.414 4.658 4.658c.5604328.56387456.8759163 1.32599367.878 2.121v15.343h-13.461c.278-.372.5-.692.647-.92.3835284-.5818656.6397913-1.2381986.752-1.926.1273486-.8074245.0587553-1.6336306-.2-2.409-1.575-4.745-5.661-7.353-7.333-8.245-.6339904-.3602813-1.3591875-.5281156-2.087-.483-2.7485546.1476923-5.3495687 1.2900344-7.318 3.214v-12.231h21.343c.7950063.00208369 1.5571254.31756723 2.121.878zm5.536 28.122h-17.838c-.313-.459-.631-.891-.952-1.288 1.3283032-.7188342 2.5411547-1.6330236 3.598-2.712h15.192zm-56-4h5.158c1.06145478 1.0880592 2.28494081 2.005252 3.627 2.719-.319.394-.636.824-.947 1.281h-7.838zm21.747-3.974c-.4287455.0226229-.8526827.1012917-1.261.234-.894-2.4-3.093-6.825-7.443-8.05-.5091668-.146788-1.0580103-.0149896-1.445.347-.3831135.3516367-.5532441.8787378-.448 1.388.428 2.116 1.85 7.167 5.95 10.064-.0663736.3261605-.0998746.6581546-.1.991v.353c-6.68 2.547-11.249-3.415-12.517-5.359-.50075285-.7712132-.62016742-1.7294782-.324-2.6 1.343-4.035 4.918-6.328 6.393-7.126.3061688-.1739145.6552388-.2578023 1.007-.242 6.92.43 9.441 7.21 10.188 10zm12.707-10.019c.3480984-.0179713.6937896.0668865.994.244 1.472.791 5.044 3.066 6.392 7.121.1575897.4711083.2001079.9730977.124 1.464-.0674602.4107255-.2215382.802397-.452 1.149-.781 1.2-3.662 5.181-7.952 5.9-.4423214.0783857-.8907907.1168737-1.34.115-1.1033854-.0160508-2.1945847-.233274-3.22-.641v-.359c-.0001254-.3328454-.0336264-.6648395-.1-.991 4.1-2.9 5.522-7.948 5.951-10.064.1050788-.5090607-.0645976-1.0359307-.447-1.388-.3874969-.3617993-.9365138-.4935482-1.446-.347-4.35 1.225-6.549 5.655-7.443 8.05-.4070661-.1322335-.8296189-.2108948-1.257-.234.06-.218.131-.461.217-.726 1.038-3.3 3.713-8.9 9.979-9.293zm-7.173 11.25c.6-1.679 2.249-5.447 5.408-6.832-.6745264 2.9926408-2.293557 5.6890385-4.618 7.691-.2290978-.3160272-.4942166-.6043018-.79-.859zm-9.351.859c-2.3248128-2.0018162-3.9442036-4.69823-4.619-7.691 3.16 1.385 4.811 5.154 5.408 6.833-.2954308.2543858-.560216.5423271-.789.858zm-7.207 5.4c.9943946.3132722 2.0304323.4744261 3.073.478 1.1044836-.0065513 2.2013595-.1832927 3.252-.524.1254792.7973141.5675579 1.510193 1.226 1.977-2.1924706 1.5690243-3.9758569 3.641868-5.2 6.044l-1.144-2.862c-.0985145-.2462643-.2908294-.4433028-.5346314-.5477625-.2438019-.1044598-.5191165-.1077826-.7653686-.0092375l-3.23 1.292c.707871-2.1511652 1.8375606-4.1395957 3.323-5.849zm9.277.484c-.5522847 0-1-.4477153-1-1v-2c0-1.6568542 1.3431458-3 3-3h2c1.6568542 0 3 1.3431458 3 3v2c0 .5522847-.4477153 1-1 1zm8.954-.535c1.0546845.3451935 2.1563016.5256482 3.266.535.5651915.0029154 1.129489-.0452808 1.686-.144.4649839-.0809778.9237612-.1942521 1.373-.339 1.484407 1.7090466 2.613388 3.6967466 3.321 5.847l-3.231-1.293c-.2462521-.0985451-.5215667-.0952223-.7653686.0092375-.243802.1044597-.4361169.3014982-.5346314.5477625l-1.142 2.862c-1.2240777-2.4021759-3.0074763-4.4750338-5.2-6.044.6598138-.4674692 1.1024001-1.1820278 1.227-1.981zm-3.954-28.465v14.61c-.8146275 1.2143507-1.4892511 2.516968-2.011 3.883-.5184561-1.3539437-1.1855372-2.6461828-1.989-3.853v-14.64zm-24.122 5.536 4.658-4.658c.56387456-.56043277 1.32599367-.87591631 2.121-.878h11.343v12.239c-1.9671357-1.9245442-4.5678919-3.0667298-7.316-3.213-.7259418-.0401006-1.4484205.1259586-2.084.479-1.684.912-5.769 3.541-7.338 8.253-.49130379 1.4497334-.29003676 3.0447563.546 4.327.2.31.417.614.639.915h-3.447v-15.343c.00208369-.79500633.31756723-1.55712544.878-2.121zm4.658 49.586-4.658-4.658c-.56043277-.5638746-.87591631-1.3259937-.878-2.121v-17.343h6.645c-.81058898 1.5171222-1.36313191 3.1585295-1.635 4.857-.05148501.3539774.09002232.7084973.37110366.9297302s.65892483.2754825.99089634.1422698l4.071-1.629 1.628 4.072c.1521275.3795963.520055.6283137.929.628h.011c.4130906-.0042946.7810197-.2621629.926-.649.021-.058 1.756-4.56 5.063-6.967v23.616h-11.343c-.79500633-.0020837-1.55712544-.3175672-2.121-.878zm15.464.878v-24.7c.3604222-.1314833.7314452-.2318502 1.109-.3h1.782c.3775516.0681641.7485734.1685307 1.109.3v24.7zm34.122-5.536-4.658 4.658c-.5638746.5604328-1.3259937.8759163-2.121.878h-21.343v-23.612c3.3 2.408 5.042 6.906 5.064 6.964.1453056.3864437.5131619.6438636.926.648h.01c.408945.0003137.7768725-.2484037.929-.628l1.628-4.072 4.071 1.629c.3319715.1332127.709815.0789631.9908963-.1422698.2810814-.2212329.4225887-.5757528.3711037-.9297302-.2718681-1.6984705-.824411-3.3398778-1.635-4.857h16.645v17.343c-.0020837.7950063-.3175672 1.5571254-.878 2.121z"/><path id="Shape" d="m34 54h-2c-.5522847 0-1 .4477153-1 1s.4477153 1 1 1h2c.5522847 0 1-.4477153 1-1s-.4477153-1-1-1z"/><path id="Shape" d="m51 54h-13c-.5522847 0-1 .4477153-1 1s.4477153 1 1 1h13c.5522847 0 1-.4477153 1-1s-.4477153-1-1-1z"/><path id="Shape" d="m32 6h2c.5522847 0 1-.44771525 1-1s-.4477153-1-1-1h-2c-.5522847 0-1 .44771525-1 1s.4477153 1 1 1z"/><path id="Shape" d="m38 6h13c.5522847 0 1-.44771525 1-1s-.4477153-1-1-1h-13c-.5522847 0-1 .44771525-1 1s.4477153 1 1 1z"/></g></g></svg>