<?xml version="1.0" encoding="utf-8"?>
<!-- Generator: Adobe Illustrator 25.0.0, SVG Export Plug-In . SVG Version: 6.00 Build 0)  -->
<svg version="1.1" id="Layer_3" xmlns="http://www.w3.org/2000/svg" xmlns:xlink="http://www.w3.org/1999/xlink" x="0px" y="0px"
	 viewBox="0 0 512 512" style="enable-background:new 0 0 512 512;" xml:space="preserve">
<style type="text/css">
	.st0{fill:#F6DFC1;}
	.st1{fill:#F18B24;}
	.st2{fill:none;}
	.st3{fill:#FFFFFF;}
</style>
<circle class="st0" cx="372.4" cy="372.4" r="128"/>
<g>
	<path class="st1" d="M178.1,238.4h-24.9c-2.9-10.6-12.5-17.9-23.4-18h-26.6H89.4c-10.9,0.1-20.5,7.4-23.4,18H41.1
		c-16.6,0.1-30,13.6-29.9,30.2v144.8v16.2v41.2c0,16.4,13.2,29.7,29.6,29.7c0.1,0,0.2,0,0.3,0h137c16.5,0.2,29.9-13.1,30.1-29.5
		c0-0.1,0-0.1,0-0.2V268.5C208.2,251.9,194.8,238.4,178.1,238.4z M79.2,244.5c0-5.6,4.5-10.2,10.2-10.2h40.7
		c5.6,0,10.2,4.5,10.2,10.2v0.7c0,5.6-4.5,10.2-10.2,10.2l0,0H89.4c-5.6,0-10.2-4.5-10.2-10.2C79.2,245.2,79.2,244.5,79.2,244.5z
		 M194.2,470.6c0,8.7-7.1,15.8-15.9,15.7c-0.1,0-0.1,0-0.2,0h-137c-8.6,0.1-15.7-6.7-15.9-15.4c0-0.1,0-0.2,0-0.4v-202
		c-0.1-8.8,7-16.1,15.9-16.2l0,0h25.2c3.1,10.2,12.5,17.1,23.1,17h40.4c10.6,0.1,20.1-6.8,23.1-17h25.2c8.9,0.1,16.1,7.3,16.1,16.2
		L194.2,470.6L194.2,470.6z"/>
	<polygon class="st1" points="89.2,220.4 89.4,220.4 89.2,220.3 	"/>
</g>
<polygon class="st2" points="247,111 181,150.1 114.4,189.2 181,228.3 202.1,240.7 247,214.5 "/>
<polygon class="st2" points="239.4,96.7 176.9,59.9 102.4,103.6 35.8,142.7 98.3,179.5 172.9,135.8 "/>
<polygon class="st2" points="330.1,228.3 396.6,189.2 330.1,150.1 264,111 264,214.5 308.9,240.7 "/>
<polygon class="st2" points="255.5,228.8 218.6,250.4 255.5,272 292.4,250.4 "/>
<polygon class="st2" points="246.1,447.6 246.1,296.8 194.2,327.3 194.2,417.5 "/>
<path class="st2" d="M330,334.6l-66.8-39.4v152.5L403,366.6v-69.7l-64.3,37.8C335.8,336.3,332.3,336.3,330,334.6z"/>
<path class="st2" d="M66.6,253.3l27.3,16h35.9c10.6,0.1,20.1-6.8,23.1-17h25.2c8.9,0.1,16.1,7.3,16.1,16.2v39.3l45.2-26.6
	l-66.6-39.1l-74.6-43.7l-62.5,36.8L65,252.4h1.3C66.4,252.7,66.5,253,66.6,253.3z"/>
<polygon class="st2" points="334.1,59.9 271.6,96.7 338.1,135.8 412.7,179.5 475.2,142.7 408.7,103.6 "/>
<polygon class="st2" points="338.1,242.1 271.6,281.2 334.1,318 406.5,275.6 408.7,274.3 475.2,235.2 412.7,198.4 "/>
<path class="st1" d="M89.4,269.4h4.5l-27.3-16C70,263,79.1,269.5,89.4,269.4z"/>
<path class="st1" d="M499.4,145.2c0.6-2.1,0.4-4.5-0.8-6.5c-0.6-1.2-1.8-2.3-3-3l-78.5-46l-79-46.5c-2.8-1.7-5.8-1.7-8.5,0L255.5,87
	L181,43.4c-2.4-1.7-5.8-1.7-8.6,0L93.8,89.8l-78.1,46c-1.2,0.6-2.3,1.8-3,3c-2.3,4-1,9.1,2.9,11.3l66.6,39.1l-67,39.1
	c-1.9,1.1-3.3,2.9-3.8,5.1c-0.5,2.1-0.2,4.3,0.9,6.2c0.6,1.2,1.7,2.3,3,3l19.2,11.3c2-0.9,4.2-1.5,6.6-1.5l0,0H65l-29.2-17.1
	l62.5-36.8l74.6,43.7l66.6,39.1l-45.2,26.6v19.4l51.9-30.4v150.7l-51.9-30.1V436l56,32.3l0.3,0.2v0.2l1.1,0.5
	c1.3,0.6,2.1,0.6,3.1,0.6c0.9,0,1.6,0,2.8-0.5c0.4-0.1,0.8-0.3,1.1-0.6c0.3-0.1,0.5-0.3,0.8-0.6L415,378c2.9-1.8,4-4.7,4-6.9v-84
	l76.3-44.6c1.2-0.6,2.3-1.8,3-3c1.1-1.9,1.4-4.1,0.9-6.2c-0.5-2.2-1.9-4-3.8-5.1l-66.6-39.1l66.5-39.1
	C497.3,149.1,498.8,147.3,499.4,145.2z M264,111l66.1,39.1l66.6,39.1l-66.6,39.1L309,240.7l-45-26.2V111z M35.8,142.7l66.6-39.1
	L177,59.9l62.5,36.8l-66.6,39.1l-74.6,43.7L35.8,142.7z M181,228.3l-66.6-39.1l66.6-39.1l66-39.1v103.5l-44.9,26.2L181,228.3z
	 M255.5,272l-36.9-21.6l36.9-21.6l36.9,21.6L255.5,272z M402.9,366.5l-139.8,81.1V295.1l66.8,39.4c2.4,1.7,5.8,1.7,8.6,0.1
	l64.3-37.8v69.7H402.9z M475.2,235.2l-66.6,39.1l-2.2,1.3L334.1,318l-62.5-36.8l66.6-39.1l74.6-43.7L475.2,235.2z M412.7,179.5
	l-74.6-43.7l-66.6-39.1L334,59.9l74.6,43.7l66.6,39.1L412.7,179.5z"/>
<path class="st3" d="M66.3,252.4H65l1.7,1C66.5,253,66.4,252.7,66.3,252.4z"/>
<path class="st1" d="M89.2,620.2h0.2H89.2z"/>
<path class="st1" d="M49.2,339.4h7.3c3.9,0,7-3.1,7-7s-3.1-7-7-7h-0.3v-19h19.3c0.9,2.9,3.6,4.8,6.7,4.7c3.9,0,7-3.1,7-7v-4.7
	c0-3.9-3.2-7-7.1-7h-33c-3.9,0-7,3.2-6.9,7l0,0v33C42.2,336.2,45.3,339.3,49.2,339.4C49.1,339.4,49.2,339.4,49.2,339.4z"/>
<path class="st1" d="M49.2,403.4h33c3.9,0,7-3.1,7-7v-33c0-3.9-3.1-7-7-7h-33c-3.9,0-7,3.1-7,7v33C42.2,400.2,45.3,403.4,49.2,403.4
	z M56.2,370.4h19v19h-19C56.2,389.4,56.2,370.4,56.2,370.4z"/>
<path class="st1" d="M56.5,453.4h-0.3v-19h18.9c0.1,3.9,3.3,7,7.2,6.9c3.8-0.1,6.8-3.1,6.9-6.9v-6.7c0-3.9-3.1-7.1-7.1-7.3h-33
	c-3.9,0.1-7,3.4-6.9,7.3v33c0,3.7,3,6.8,6.7,6.8c0.1,0,0.1,0,0.2,0h7.3c3.9,0,7-3.1,7-7S60.4,453.4,56.5,453.4L56.5,453.4z"/>
<path class="st1" d="M98.3,300.9l-20.5,20.5l-6.2-6.2c-2.7-2.7-7.2-2.7-9.9,0c-2.7,2.7-2.7,7.2,0,9.9l11.2,11.2
	c2.7,2.7,7.2,2.7,9.9,0l0,0l25.5-25.5c2.7-2.7,2.7-7.2,0-9.9S101,298.2,98.3,300.9L98.3,300.9z"/>
<path class="st1" d="M98.3,430.2l-20.5,20.5l-6.2-6.2c-2.7-2.7-7.2-2.7-9.9,0c-2.7,2.7-2.7,7.2,0,9.9l11.2,11.2
	c2.7,2.7,7.2,2.7,9.9,0l0,0l25.5-25.5c2.7-2.7,2.7-7.2,0-9.9S101,427.5,98.3,430.2L98.3,430.2z"/>
<path class="st1" d="M170.1,309.4h-44c-3.9,0-7,3.1-7,7s3.1,7,7,7h44c3.9,0,7-3.1,7-7S173.9,309.4,170.1,309.4z"/>
<path class="st1" d="M170.1,373.4h-44c-3.9,0-7,3.1-7,7s3.1,7,7,7h44c3.9,0,7-3.1,7-7S173.9,373.4,170.1,373.4z"/>
<path class="st1" d="M170.1,437.4h-44c-3.9,0-7,3.1-7,7s3.1,7,7,7h44c3.9,0,7-3.1,7-7S173.9,437.4,170.1,437.4z"/>
</svg>
