<?xml version="1.0" encoding="utf-8"?>
<!-- Generator: Adobe Illustrator 25.0.0, SVG Export Plug-In . SVG Version: 6.00 Build 0)  -->
<svg version="1.1" id="Capa_1" xmlns="http://www.w3.org/2000/svg" xmlns:xlink="http://www.w3.org/1999/xlink" x="0px" y="0px"
	 viewBox="0 0 496 496" style="enable-background:new 0 0 496 496;" xml:space="preserve">
<style type="text/css">
	.st0{opacity:0;fill:#F6DFC1;}
	.st1{fill:#F18B24;}
	.st2{fill:#FFFFFF;stroke:#FFFFFF;stroke-width:3;stroke-miterlimit:10;}
</style>
<circle class="st0" cx="360" cy="358.9" r="128"/>
<g>
	<g>
		<g>
			<path class="st1" d="M469.7-343.4l-77.4-77.4c-1.1-1.1-2.5-1.9-4.1-2.1L303-438.4c-4.2-0.8-8.2,2-9,6.2c-0.1,0.5-0.1,0.9-0.1,1.4
				c0,2.5-0.2,4.9-0.7,7.3l-53.5-13.4v-2.5c20.9-4.3,34.5-24.7,30.2-45.7c-4.2-20.9-24.7-34.4-45.6-30.1c-18,3.7-31,19.5-31,37.9
				h15.5c0-12.8,10.4-23.2,23.2-23.2c12.8,0,23.2,10.4,23.2,23.2c0,12.8-10.4,23.2-23.2,23.2c-4.3,0-7.7,3.5-7.7,7.7v9.4l-53.5,13.4
				c-0.4-2.4-0.6-4.9-0.7-7.3c0-2.3-1-4.5-2.8-5.9c-1.8-1.5-4.1-2.1-6.3-1.7L75.8-423c-1.5,0.3-3,1-4.1,2.1l-77.4,77.4
				c-3,3-3,7.9,0,10.9l61.9,61.9c3,3,7.9,3,10.9,0l17.8-17.8v51H30.7C9.4-237.4-7.9-220.1-8-198.8c0,12.3,5.8,23.9,15.7,31.2
				c-17.1,12.5-20.8,36.5-8.3,53.6c2.3,3.2,5.1,6,8.3,8.3c-17.2,12.6-20.8,36.8-8.2,54C6.8-41.8,18.4-35.9,30.7-36h278.7
				c2.1,0,4-0.8,5.5-2.3l61.9-61.9c1.4-1.5,2.2-3.4,2.2-5.5h0.1v-182.6l17.8,17.8c3,3,7.9,3,10.9,0l61.9-61.9
				C472.8-335.5,472.8-340.4,469.7-343.4z M232-422.9l56.3,14.1c-11.7,19.9-33.2,31.8-56.3,31.2c-23.1,0.7-44.6-11.3-56.3-31.2
				L232-422.9z M7.5-198.6c0-12.8,10.4-23.2,23.2-23.2H201c12.8,0,23.2,10.4,23.2,23.2s-10.4,23.2-23.2,23.2H30.7
				C17.9-175.4,7.5-185.8,7.5-198.6z M7.5-136.6c0-12.8,10.4-23.2,23.2-23.2H201c12.8,0,23.2,10.4,23.2,23.2
				c0,12.8-10.4,23.2-23.2,23.2H30.7C17.9-113.4,7.5-123.8,7.5-136.6z M201-51.5h-15.5H30.7c-12.8,0-23.2-10.4-23.2-23.2
				s10.4-23.2,23.2-23.2H201c12.8,0,23.2,10.4,23.2,23.2S213.9-51.5,201-51.5z M317.2-62.4v-35.5h35.5L317.2-62.4z M402.3-286.9
				l-48.7-48.7l-10.9,10.9l21,21v190.3h-54.2c-4.3,0-7.7,3.5-7.7,7.7v54.2h-69.9c12.9-16.7,9.8-40.7-6.9-53.6
				c-0.3-0.2-0.6-0.4-0.8-0.6c17.1-12.5,20.8-36.5,8.3-53.6c-2.3-3.2-5.1-6-8.3-8.3c17.2-12.6,20.8-36.8,8.2-54
				c-7.3-9.9-18.9-15.8-31.2-15.7H100.4v-66.5l21-21l-10.9-10.9L61.8-287l-51-51L81-408.2l74.3-13.5c5.1,33.6,37.5,59.6,76.7,59.6
				s71.7-26,76.7-59.6l74.3,13.5l70.3,70.2L402.3-286.9z"/>
			<rect x="23" y="-206.3" class="st1" width="185.8" height="15.5"/>
			<rect x="23" y="-144.4" class="st1" width="178.1" height="15.5"/>
			<rect x="23" y="-82.5" class="st1" width="178.1" height="15.5"/>
		</g>
	</g>
</g>
<g>
	<path class="st2" d="M462.9,63.6V37.9c0-10.1-8.2-18.4-18.4-18.4c-10.1,0-18.4,8.2-18.4,18.4v26.1c-5.4,2.5-9.2,8-9.2,14.4v311.4
		c0,3.8,3.1,6.9,6.9,6.9c3.8,0,6.9-3.1,6.9-6.9v-253h28.6v275.1h-28.6v-34.2c0-3.8-3.1-6.9-6.9-6.9c-3.8,0-6.9,3.1-6.9,6.9v41
		c0,0.6,0.1,1.2,0.2,1.7l13.6,52.2c1.7,6.6,7.4,11,14.2,11s12.5-4.4,14.2-11l13.6-52.2c0.1-0.6,0.2-1.1,0.2-1.7V78.3
		C473,71.6,468.8,65.9,462.9,63.6L462.9,63.6z M430.7,78.3c0-1.2,1-2.1,2.1-2.1h24.3c1.2,0,2.1,1,2.1,2.1v16.4h-28.6L430.7,78.3
		L430.7,78.3z M444.6,33.2c2.6,0,4.6,2.1,4.6,4.6v24.6H440V37.9C440,35.3,442,33.2,444.6,33.2z M430.7,123v-14.6h28.6V123H430.7z
		 M445.9,469.1c-0.1,0.3-0.2,0.7-0.9,0.7s-0.9-0.4-0.9-0.7l-11.3-43.6h24.5L445.9,469.1z"/>
	<path class="st2" d="M135.5,81.1H244c3.8,0,6.9-3.1,6.9-6.9s-3.1-6.9-6.9-6.9H135.5c-3.8,0-6.9,3.1-6.9,6.9S131.7,81.1,135.5,81.1z
		"/>
	<path class="st2" d="M135.5,154.6h204.2c3.8,0,6.9-3.1,6.9-6.9c0-3.8-3.1-6.9-6.9-6.9H135.5c-3.8,0-6.9,3.1-6.9,6.9
		C128.6,151.5,131.7,154.6,135.5,154.6L135.5,154.6z"/>
	<path class="st2" d="M135.5,221.7h204.2c3.8,0,6.9-3.1,6.9-6.9c0-3.8-3.1-6.9-6.9-6.9H135.5c-3.8,0-6.9,3.1-6.9,6.9
		C128.6,218.6,131.7,221.7,135.5,221.7L135.5,221.7z"/>
	<path class="st2" d="M135.5,288.8h204.2c3.8,0,6.9-3.1,6.9-6.9c0-3.8-3.1-6.9-6.9-6.9H135.5c-3.8,0-6.9,3.1-6.9,6.9
		C128.6,285.7,131.7,288.8,135.5,288.8L135.5,288.8z"/>
	<path class="st2" d="M135.5,355.9h204.2c3.8,0,6.9-3.1,6.9-6.9c0-3.8-3.1-6.9-6.9-6.9H135.5c-3.8,0-6.9,3.1-6.9,6.9
		C128.6,352.8,131.7,355.9,135.5,355.9L135.5,355.9z"/>
	<path class="st2" d="M135.5,423h204.2c3.8,0,6.9-3.1,6.9-6.9c0-3.8-3.1-6.9-6.9-6.9H135.5c-3.8,0-6.9,3.1-6.9,6.9
		C128.6,419.9,131.7,423,135.5,423L135.5,423z"/>
	<path class="st2" d="M100.2,409.7c0-12.2-9.9-22.1-22.1-22.1H71v-36.1h7.1c12.2,0,22.1-9.9,22.1-22.1s-9.9-22.1-22.1-22.1H71v-36.1
		h7.1c12.2,0,22.1-9.9,22.1-22.1s-9.9-22.1-22.1-22.1H71v-36.1h7.1c12.2,0,22.1-9.9,22.1-22.1S90.3,147,78.1,147H71v-36.1h7.1
		c12.2,0,22.1-9.9,22.1-22.1s-9.9-22.1-22.1-22.1H50.2c-12.2,0-22.1,9.9-22.1,22.1s9.9,22.1,22.1,22.1h7.1V147h-7.1
		c-12.2,0-22.1,9.9-22.1,22.1c0,12.2,9.9,22.1,22.1,22.1h7.1v36.1h-7.1c-12.2,0-22.1,9.9-22.1,22.1c0,12.2,9.9,22.1,22.1,22.1h7.1
		v36.1h-7.1c-12.2,0-22.1,9.9-22.1,22.1s9.9,22.1,22.1,22.1h7.1v36.1h-7.1c-12.2,0-22.1,9.9-22.1,22.1c0,12.2,9.9,22.1,22.1,22.1
		h27.9C90.3,431.8,100.2,421.9,100.2,409.7z M41.9,88.9c0-4.6,3.7-8.3,8.3-8.3h27.9c4.6,0,8.3,3.7,8.3,8.3s-3.7,8.3-8.3,8.3H50.2
		C45.6,97.2,41.9,93.5,41.9,88.9z M41.9,169.1c0-4.6,3.7-8.3,8.3-8.3h27.9c4.6,0,8.3,3.7,8.3,8.3c0,4.6-3.7,8.3-8.3,8.3H50.2
		C45.6,177.4,41.9,173.7,41.9,169.1z M41.9,249.3c0-4.6,3.7-8.3,8.3-8.3h27.9c4.6,0,8.3,3.7,8.3,8.3c0,4.6-3.7,8.3-8.3,8.3H50.2
		C45.6,257.6,41.9,253.9,41.9,249.3z M41.9,329.5c0-4.6,3.7-8.3,8.3-8.3h27.9c4.6,0,8.3,3.7,8.3,8.3s-3.7,8.3-8.3,8.3H50.2
		C45.6,337.8,41.9,334.1,41.9,329.5z M41.9,409.7c0-4.6,3.7-8.3,8.3-8.3h27.9c4.6,0,8.3,3.7,8.3,8.3c0,4.6-3.7,8.3-8.3,8.3H50.2
		C45.6,418,41.9,414.3,41.9,409.7z"/>
	<path class="st2" d="M370,15H85.9c-14.7,0-27.3,11.5-28.5,26.2c-0.3,3.8,2.5,7.1,6.3,7.4c3.8,0.3,7.1-2.5,7.4-6.3
		c0.6-7.6,7.2-13.6,14.8-13.6H370c8.2,0,14.9,6.7,14.9,14.9V455c0,8.2-6.7,14.9-14.9,14.9H85.9c-7.7,0-14.2-6-14.8-13.6
		c-0.3-3.8-3.6-6.6-7.4-6.3c-3.8,0.3-6.6,3.6-6.3,7.4c1.2,14.7,13.8,26.2,28.5,26.2H370c15.8,0,28.6-12.8,28.6-28.6V43.6
		C398.6,27.8,385.8,15,370,15L370,15z"/>
</g>
</svg>
