<?xml version="1.0" encoding="utf-8"?>
<!-- Generator: Adobe Illustrator 25.0.0, SVG Export Plug-In . SVG Version: 6.00 Build 0)  -->
<svg version="1.1" id="Capa_1" xmlns="http://www.w3.org/2000/svg" xmlns:xlink="http://www.w3.org/1999/xlink" x="0px" y="0px"
	 viewBox="0 0 496 496" style="enable-background:new 0 0 496 496;" xml:space="preserve">
<style type="text/css">
	.st0{fill:#F6DFC1;}
	.st1{fill:#F18B24;}
	.st2{fill:#F18B24;stroke:#F18B24;stroke-width:2;stroke-miterlimit:10;}
</style>
<circle class="st0" cx="360" cy="358.9" r="128"/>
<g>
	<g>
		<g>
			<path class="st1" d="M469.7-343.4l-77.4-77.4c-1.1-1.1-2.5-1.9-4.1-2.1L303-438.4c-4.2-0.8-8.2,2-9,6.2c-0.1,0.5-0.1,0.9-0.1,1.4
				c0,2.5-0.2,4.9-0.7,7.3l-53.5-13.4v-2.5c20.9-4.3,34.5-24.7,30.2-45.7c-4.2-20.9-24.7-34.4-45.6-30.1c-18,3.7-31,19.5-31,37.9
				h15.5c0-12.8,10.4-23.2,23.2-23.2c12.8,0,23.2,10.4,23.2,23.2c0,12.8-10.4,23.2-23.2,23.2c-4.3,0-7.7,3.5-7.7,7.7v9.4l-53.5,13.4
				c-0.4-2.4-0.6-4.9-0.7-7.3c0-2.3-1-4.5-2.8-5.9c-1.8-1.5-4.1-2.1-6.3-1.7L75.8-423c-1.5,0.3-3,1-4.1,2.1l-77.4,77.4
				c-3,3-3,7.9,0,10.9l61.9,61.9c3,3,7.9,3,10.9,0l17.8-17.8v51H30.7C9.4-237.4-7.9-220.1-8-198.8c0,12.3,5.8,23.9,15.7,31.2
				c-17.1,12.5-20.8,36.5-8.3,53.6c2.3,3.2,5.1,6,8.3,8.3c-17.2,12.6-20.8,36.8-8.2,54C6.8-41.8,18.4-35.9,30.7-36h278.7
				c2.1,0,4-0.8,5.5-2.3l61.9-61.9c1.4-1.5,2.2-3.4,2.2-5.5h0.1v-182.6l17.8,17.8c3,3,7.9,3,10.9,0l61.9-61.9
				C472.8-335.5,472.8-340.4,469.7-343.4z M232-422.9l56.3,14.1c-11.7,19.9-33.2,31.8-56.3,31.2c-23.1,0.7-44.6-11.3-56.3-31.2
				L232-422.9z M7.5-198.6c0-12.8,10.4-23.2,23.2-23.2H201c12.8,0,23.2,10.4,23.2,23.2s-10.4,23.2-23.2,23.2H30.7
				C17.9-175.4,7.5-185.8,7.5-198.6z M7.5-136.6c0-12.8,10.4-23.2,23.2-23.2H201c12.8,0,23.2,10.4,23.2,23.2
				c0,12.8-10.4,23.2-23.2,23.2H30.7C17.9-113.4,7.5-123.8,7.5-136.6z M201-51.5h-15.5H30.7c-12.8,0-23.2-10.4-23.2-23.2
				s10.4-23.2,23.2-23.2H201c12.8,0,23.2,10.4,23.2,23.2S213.9-51.5,201-51.5z M317.2-62.4v-35.5h35.5L317.2-62.4z M402.3-286.9
				l-48.7-48.7l-10.9,10.9l21,21v190.3h-54.2c-4.3,0-7.7,3.5-7.7,7.7v54.2h-69.9c12.9-16.7,9.8-40.7-6.9-53.6
				c-0.3-0.2-0.6-0.4-0.8-0.6c17.1-12.5,20.8-36.5,8.3-53.6c-2.3-3.2-5.1-6-8.3-8.3c17.2-12.6,20.8-36.8,8.2-54
				c-7.3-9.9-18.9-15.8-31.2-15.7H100.4v-66.5l21-21l-10.9-10.9L61.8-287l-51-51L81-408.2l74.3-13.5c5.1,33.6,37.5,59.6,76.7,59.6
				s71.7-26,76.7-59.6l74.3,13.5l70.3,70.2L402.3-286.9z"/>
			<rect x="23" y="-206.3" class="st1" width="185.8" height="15.5"/>
			<rect x="23" y="-144.4" class="st1" width="178.1" height="15.5"/>
			<rect x="23" y="-82.5" class="st1" width="178.1" height="15.5"/>
		</g>
	</g>
</g>
<g>
	<g>
		<g>
			<path class="st2" d="M87.8,431.4H50c-3.9,0-7.1,3.2-7.1,7.1c0,3.9,3.2,7.1,7.1,7.1h37.9c3.9,0,7.1-3.2,7.1-7.1
				C94.9,434.6,91.7,431.4,87.8,431.4z"/>
		</g>
	</g>
	<g>
		<g>
			<path class="st2" d="M110.6,401.1H50c-3.9,0-7.1,3.2-7.1,7.1c0,3.9,3.2,7.1,7.1,7.1h60.6c3.9,0,7.1-3.2,7.1-7.1
				C117.6,404.3,114.5,401.1,110.6,401.1z"/>
		</g>
	</g>
	<g>
		<g>
			<path class="st2" d="M474.1,242H371.4V21.9c0-8.1-6.6-14.7-14.7-14.7H137.1c-8.1,0-14.7,6.6-14.7,14.7V242H19.7
				C11.6,242,5,248.6,5,256.7v219.6c0,8.1,6.6,14.7,14.7,14.7h454.4c8.1,0,14.7-6.6,14.7-14.7V256.7
				C488.7,248.6,482.2,242,474.1,242z M376.1,256.2v61.6h-23.7v-61.6H376.1z M258.7,21.4V83H235V21.4H258.7z M117.6,256.2h23.7v61.6
				h-23.7C117.6,317.8,117.6,256.2,117.6,256.2z M474.1,476.8H254V256.2h79.6c3.9,0,7.1-3.2,7.1-7.1s-3.2-7.1-7.1-7.1H154.8
				c-3.9,0-7.1,3.2-7.1,7.1s3.2,7.1,7.1,7.1h85v220.6H19.7c-0.3,0-0.5-0.2-0.5-0.5V256.7c0-0.3,0.2-0.5,0.5-0.5h83.8v68.6
				c0,3.9,3.2,7.1,7.1,7.1h37.9c3.9,0,7.1-3.2,7.1-7.1v-68.6h8.1c3.9,0,7.1-3.2,7.1-7.1s-3.2-7.1-7.1-7.1h-27V21.9
				c0-0.3,0.2-0.5,0.5-0.5h83.8v68.6c0,3.9,3.2,7.1,7.1,7.1h37.9c3.9,0,7.1-3.2,7.1-7.1V21.4h83.8c0.3,0,0.5,0.2,0.5,0.5V242h-27
				c-3.9,0-7.1,3.2-7.1,7.1s3.2,7.1,7.1,7.1h8.1v68.6c0,3.9,3.2,7.1,7.1,7.1h37.9c3.9,0,7.1-3.2,7.1-7.1v-68.6h83.8
				c0.3,0,0.5,0.2,0.5,0.5v219.6h0C474.6,476.6,474.4,476.8,474.1,476.8z"/>
		</g>
	</g>
	<g>
		<g>
			<path class="st2" d="M322.6,431.4h-37.9c-3.9,0-7.1,3.2-7.1,7.1c0,3.9,3.2,7.1,7.1,7.1h37.9c3.9,0,7.1-3.2,7.1-7.1
				C329.7,434.6,326.5,431.4,322.6,431.4z"/>
		</g>
	</g>
	<g>
		<g>
			<path class="st2" d="M345.3,401.1h-60.6c-3.9,0-7.1,3.2-7.1,7.1c0,3.9,3.2,7.1,7.1,7.1h60.6c3.9,0,7.1-3.2,7.1-7.1
				C352.4,404.3,349.3,401.1,345.3,401.1z"/>
		</g>
	</g>
	<g>
		<g>
			<path class="st2" d="M205.2,196.6h-37.9c-3.9,0-7.1,3.2-7.1,7.1c0,3.9,3.2,7.1,7.1,7.1h37.9c3.9,0,7.1-3.2,7.1-7.1
				C212.3,199.8,209.1,196.6,205.2,196.6z"/>
		</g>
	</g>
	<g>
		<g>
			<path class="st2" d="M227.9,166.3h-60.6c-3.9,0-7.1,3.2-7.1,7.1c0,3.9,3.2,7.1,7.1,7.1h60.6c3.9,0,7.1-3.2,7.1-7.1
				C235,169.5,231.9,166.3,227.9,166.3z"/>
		</g>
	</g>
</g>
</svg>
