<svg id="Layer_3" enable-background="new 0 0 64 64" height="512" viewBox="0 0 64 64" width="512" xmlns="http://www.w3.org/2000/svg"><g><path d="m58 37h-1v-6c0-3.309-2.691-6-6-6h-38c-3.309 0-6 2.691-6 6v6h-1c-2.757 0-5 2.243-5 5s2.243 5 5 5h.959v11c0 .552.448 1 1 1h1.041v3c0 .552.448 1 1 1h4c.552 0 1-.448 1-1v-3h34v3c0 .552.448 1 1 1h4c.552 0 1-.448 1-1v-3h1c.552 0 1-.448 1-1v-11h1c2.757 0 5-2.243 5-5s-2.243-5-5-5zm-49-6c0-2.206 1.794-4 4-4h38c2.206 0 4 1.794 4 4v6h-.082c-.662 0-1.303.09-1.918.242v-6.242c0-1.103-.897-2-2-2h-38c-1.103 0-2 .897-2 2v6.263c-.641-.166-1.308-.263-2-.263zm8 16h29.918v6h-29.918zm0-2c0-2.953-1.613-5.532-4-6.918v-7.082h38v7.033c-2.433 1.374-4.082 3.98-4.082 6.967zm-4 16h-2v-2h2zm2-4h-6.041v-11c0-.552-.448-1-1-1h-1.959c-1.654 0-3-1.346-3-3s1.346-3 3-3h3c3.309 0 6 2.691 6 6zm2 0v-2h29.918v2zm36 4h-2v-2h2zm5-16h-2c-.552 0-1 .448-1 1v11h-6.082v-12c0-3.309 2.691-6 6-6h3.082c1.654 0 3 1.346 3 3s-1.346 3-3 3z"/><path d="m20 35h2v2h-2z"/><path d="m31 35h2v2h-2z"/><path d="m24 40h2v2h-2z"/><path d="m38 40h2v2h-2z"/><path d="m42 35h2v2h-2z"/><path d="m32 19c4.962 0 9-4.038 9-9s-4.038-9-9-9-9 4.038-9 9 4.038 9 9 9zm-1-15.92v1.92h2v-1.92c3.059.44 5.48 2.861 5.92 5.92h-1.92v2h1.92c-.441 3.059-2.861 5.48-5.92 5.92v-1.92h-2v1.92c-3.059-.441-5.48-2.861-5.92-5.92h1.92v-2h-1.92c.44-3.059 2.861-5.48 5.92-5.92z"/><path d="m33.293 12.707 1.414-1.414-1.707-1.707v-2.586h-2v3c0 .265.105.52.293.707z"/></g></svg>