<svg id="Layer_1" enable-background="new 0 0 512 512" height="512" viewBox="0 0 512 512" width="512" xmlns="http://www.w3.org/2000/svg"><g><path d="m466.433 292.794-37.655-101.327c-1.092-2.938-3.896-4.887-7.03-4.887h-256.592c-4.142 0-7.5 3.358-7.5 7.5s3.358 7.5 7.5 7.5h251.377l32.081 86.327h-385.228l32.081-86.327h34.682c4.142 0 7.5-3.358 7.5-7.5s-3.358-7.5-7.5-7.5h-39.896c-3.134 0-5.938 1.949-7.03 4.887l-37.656 101.327c-.855 2.302-.53 4.877.872 6.894 1.402 2.016 3.702 3.219 6.158 3.219h30.156v201.593c0 4.142 3.358 7.5 7.5 7.5h252.545c4.143 0 7.5-3.358 7.5-7.5s-3.357-7.5-7.5-7.5h-245.045v-14.975h316.494v14.975h-36.603c-4.143 0-7.5 3.358-7.5 7.5s3.357 7.5 7.5 7.5h44.103c4.143 0 7.5-3.358 7.5-7.5v-201.593h30.155c2.456 0 4.756-1.203 6.158-3.219 1.402-2.017 1.728-4.592.873-6.894zm-52.186 174.231h-316.494v-164.118h316.494z"/><path d="m250.209 167.612c1.425 1.731 3.549 2.734 5.791 2.734s4.366-1.003 5.791-2.734l46.295-56.248c1.844-2.241 2.23-5.344.991-7.968-1.239-2.625-3.881-4.298-6.782-4.298h-20.165v-91.598c0-4.142-3.357-7.5-7.5-7.5h-37.259c-4.142 0-7.5 3.358-7.5 7.5v91.598h-20.165c-2.902 0-5.543 1.674-6.782 4.298s-.853 5.727.991 7.968zm-12.838-53.514c4.142 0 7.5-3.358 7.5-7.5v-91.598h22.259v91.598c0 4.142 3.357 7.5 7.5 7.5h11.778l-30.408 36.945-30.408-36.946h11.779z"/><path d="m314.264 408.794h33.855c4.143 0 7.5-3.358 7.5-7.5s-3.357-7.5-7.5-7.5h-33.855c-4.143 0-7.5 3.358-7.5 7.5s3.357 7.5 7.5 7.5z"/><path d="m314.264 438.77h63.979c4.143 0 7.5-3.358 7.5-7.5s-3.357-7.5-7.5-7.5h-63.979c-4.143 0-7.5 3.358-7.5 7.5s3.357 7.5 7.5 7.5z"/><path d="m254.394 438.77h30c4.143 0 7.5-3.358 7.5-7.5v-29.975c0-4.142-3.357-7.5-7.5-7.5h-30c-4.142 0-7.5 3.358-7.5 7.5v29.975c0 4.142 3.358 7.5 7.5 7.5zm7.5-29.976h15v14.975h-15z"/><path d="m194.394 438.77h30c4.142 0 7.5-3.358 7.5-7.5v-29.975c0-4.142-3.358-7.5-7.5-7.5h-30c-4.142 0-7.5 3.358-7.5 7.5v29.975c0 4.142 3.358 7.5 7.5 7.5zm7.5-29.976h15v14.975h-15z"/><path d="m134.394 438.77h30c4.142 0 7.5-3.358 7.5-7.5v-29.975c0-4.142-3.358-7.5-7.5-7.5h-30c-4.142 0-7.5 3.358-7.5 7.5v29.975c0 4.142 3.358 7.5 7.5 7.5zm7.5-29.976h15v14.975h-15z"/><path d="m147.764 135.346h-9.715c-4.142 0-7.5 3.358-7.5 7.5s3.358 7.5 7.5 7.5h27.964c4.142 0 7.5-3.358 7.5-7.5v-27.971c0-4.142-3.358-7.5-7.5-7.5s-7.5 3.358-7.5 7.5v10.004l-71.397-70.613v-46.766c0-4.142-3.358-7.5-7.5-7.5s-7.5 3.358-7.5 7.5v49.897c0 2.003.802 3.924 2.226 5.333z"/><path d="m346.624 150.346h27.965c4.143 0 7.5-3.358 7.5-7.5s-3.357-7.5-7.5-7.5h-9.716l73.422-72.616c1.424-1.409 2.226-3.329 2.226-5.333v-49.897c0-4.142-3.357-7.5-7.5-7.5s-7.5 3.358-7.5 7.5v46.766l-71.396 70.613v-10.004c0-4.142-3.357-7.5-7.5-7.5s-7.5 3.358-7.5 7.5v27.971c-.001 4.142 3.357 7.5 7.499 7.5z"/></g></svg>