<svg id="Layer_1" enable-background="new 0 0 512 512" height="512" viewBox="0 0 512 512" width="512" xmlns="http://www.w3.org/2000/svg"><g><path d="m170.246 80.547h14.997c4.142 0 7.5-3.358 7.5-7.5s-3.358-7.5-7.5-7.5h-14.997c-4.142 0-7.5 3.358-7.5 7.5s3.358 7.5 7.5 7.5z"/><path d="m270.164 80.547h28.309c4.142 0 7.5-3.358 7.5-7.5s-3.358-7.5-7.5-7.5h-28.309c-4.142 0-7.5 3.358-7.5 7.5s3.357 7.5 7.5 7.5z"/><path d="m213.546 80.547h28.309c4.142 0 7.5-3.358 7.5-7.5s-3.358-7.5-7.5-7.5h-28.309c-4.142 0-7.5 3.358-7.5 7.5s3.358 7.5 7.5 7.5z"/><path d="m341.754 65.547h-14.997c-4.142 0-7.5 3.358-7.5 7.5s3.358 7.5 7.5 7.5h14.997c4.142 0 7.5-3.358 7.5-7.5s-3.358-7.5-7.5-7.5z"/><path d="m185.243 431.703h-14.997c-4.142 0-7.5 3.358-7.5 7.5s3.358 7.5 7.5 7.5h14.997c4.142 0 7.5-3.358 7.5-7.5s-3.358-7.5-7.5-7.5z"/><path d="m298.472 431.703h-28.309c-4.142 0-7.5 3.358-7.5 7.5s3.358 7.5 7.5 7.5h28.309c4.142 0 7.5-3.358 7.5-7.5s-3.358-7.5-7.5-7.5z"/><path d="m241.854 431.703h-28.309c-4.142 0-7.5 3.358-7.5 7.5s3.358 7.5 7.5 7.5h28.309c4.142 0 7.5-3.358 7.5-7.5s-3.357-7.5-7.5-7.5z"/><path d="m341.754 431.703h-14.997c-4.142 0-7.5 3.358-7.5 7.5s3.358 7.5 7.5 7.5h14.997c4.142 0 7.5-3.358 7.5-7.5s-3.358-7.5-7.5-7.5z"/><path d="m178.406 248.43c-4.142 0-7.5 3.358-7.5 7.5s3.358 7.5 7.5 7.5h31.049c4.142 0 7.5-3.358 7.5-7.5s-3.358-7.5-7.5-7.5z"/><path d="m403.251 255.93c0-4.142-3.358-7.5-7.5-7.5h-31.049c-4.142 0-7.5 3.358-7.5 7.5s3.358 7.5 7.5 7.5h31.049c4.143 0 7.5-3.358 7.5-7.5z"/><path d="m295.104 255.93c0 4.142 3.358 7.5 7.5 7.5h31.049c4.142 0 7.5-3.358 7.5-7.5s-3.358-7.5-7.5-7.5h-31.049c-4.143 0-7.5 3.358-7.5 7.5z"/><path d="m147.356 248.43h-31.049c-4.142 0-7.5 3.358-7.5 7.5s3.358 7.5 7.5 7.5h31.049c4.142 0 7.5-3.358 7.5-7.5s-3.358-7.5-7.5-7.5z"/><path d="m240.504 248.43c-4.142 0-7.5 3.358-7.5 7.5s3.358 7.5 7.5 7.5h31.049c4.142 0 7.5-3.358 7.5-7.5s-3.358-7.5-7.5-7.5z"/><path d="m62.767 255.93c0 4.142 3.358 7.5 7.5 7.5h14.997c4.142 0 7.5-3.358 7.5-7.5s-3.358-7.5-7.5-7.5h-7.497v-22.5c0-4.142-3.358-7.5-7.5-7.5s-7.5 3.358-7.5 7.5z"/><path d="m70.267 203.43c4.142 0 7.5-3.358 7.5-7.5v-8.435c0-4.142-3.358-7.5-7.5-7.5s-7.5 3.358-7.5 7.5v8.435c0 4.142 3.358 7.5 7.5 7.5z"/><path d="m441.733 308.43c-4.142 0-7.5 3.358-7.5 7.5v8.435c0 4.142 3.358 7.5 7.5 7.5s7.5-3.358 7.5-7.5v-8.435c0-4.142-3.358-7.5-7.5-7.5z"/><path d="m449.233 255.93c0-4.142-3.358-7.5-7.5-7.5h-14.997c-4.142 0-7.5 3.358-7.5 7.5s3.358 7.5 7.5 7.5h7.497v22.5c0 4.142 3.358 7.5 7.5 7.5s7.5-3.358 7.5-7.5z"/><path d="m504.5 346.63h-130.109c-4.142 0-7.5 3.358-7.5 7.5v150.37c0 4.142 3.358 7.5 7.5 7.5h130.109c4.142 0 7.5-3.358 7.5-7.5v-27.449c0-4.142-3.358-7.5-7.5-7.5s-7.5 3.358-7.5 7.5v19.949h-115.109v-135.37h29.376v62.676c0 2.582 1.328 4.983 3.516 6.354 2.187 1.371 4.926 1.521 7.251.396l17.411-8.427 17.411 8.427c1.035.501 2.153.749 3.267.749 1.388 0 2.771-.385 3.984-1.146 2.188-1.372 3.516-3.772 3.516-6.354v-62.675h29.377v80.674c0 4.142 3.358 7.5 7.5 7.5s7.5-3.358 7.5-7.5v-88.174c0-4.142-3.358-7.5-7.5-7.5zm-51.876 65.713-9.911-4.797c-1.032-.5-2.15-.749-3.268-.749s-2.235.25-3.268.749l-9.911 4.797v-50.713h26.357v50.713z"/><path d="m456.927 455.314h-34.964c-4.142 0-7.5 3.358-7.5 7.5s3.358 7.5 7.5 7.5h34.964c4.142 0 7.5-3.358 7.5-7.5s-3.358-7.5-7.5-7.5z"/><path d="m137.609 346.63h-130.109c-4.142 0-7.5 3.358-7.5 7.5v35.088c0 4.142 3.358 7.5 7.5 7.5s7.5-3.358 7.5-7.5v-27.588h29.376v62.676c0 2.582 1.328 4.983 3.516 6.354 2.187 1.371 4.926 1.521 7.251.396l17.411-8.427 17.411 8.427c1.035.501 2.153.749 3.267.749 1.388 0 2.771-.385 3.984-1.146 2.188-1.372 3.516-3.772 3.516-6.354v-62.675h29.376v135.37h-115.108v-72.858c0-4.142-3.358-7.5-7.5-7.5s-7.5 3.358-7.5 7.5v80.358c0 4.142 3.358 7.5 7.5 7.5h130.109c4.142 0 7.5-3.358 7.5-7.5v-150.37c0-4.142-3.358-7.5-7.5-7.5zm-51.876 65.713-9.911-4.797c-1.032-.5-2.15-.749-3.268-.749s-2.235.25-3.268.749l-9.911 4.797v-50.713h26.357v50.713z"/><path d="m90.037 470.314c4.142 0 7.5-3.358 7.5-7.5s-3.358-7.5-7.5-7.5h-34.964c-4.142 0-7.5 3.358-7.5 7.5s3.358 7.5 7.5 7.5z"/><path d="m7.5 165.371h130.109c4.142 0 7.5-3.358 7.5-7.5v-150.371c0-4.142-3.358-7.5-7.5-7.5h-130.109c-4.142 0-7.5 3.358-7.5 7.5v88.175c0 4.142 3.358 7.5 7.5 7.5s7.5-3.358 7.5-7.5v-80.675h29.376v62.676c0 2.582 1.328 4.983 3.516 6.354 2.187 1.371 4.926 1.521 7.251.396l17.412-8.426 17.411 8.427c1.035.501 2.153.749 3.267.749 1.388 0 2.771-.385 3.984-1.146 2.188-1.372 3.516-3.772 3.516-6.354v-62.676h29.376v135.371h-115.109v-19.95c0-4.142-3.358-7.5-7.5-7.5s-7.5 3.358-7.5 7.5v27.45c0 4.142 3.358 7.5 7.5 7.5zm78.233-99.657-9.911-4.797c-1.032-.5-2.15-.749-3.268-.749s-2.235.25-3.268.749l-9.911 4.797v-50.714h26.357v50.714z"/><path d="m90.037 123.685c4.142 0 7.5-3.358 7.5-7.5s-3.358-7.5-7.5-7.5h-34.964c-4.142 0-7.5 3.358-7.5 7.5s3.358 7.5 7.5 7.5z"/><path d="m504.5 50.088c4.142 0 7.5-3.358 7.5-7.5v-35.088c0-4.142-3.358-7.5-7.5-7.5h-130.109c-4.142 0-7.5 3.358-7.5 7.5v150.371c0 4.142 3.358 7.5 7.5 7.5h130.109c4.142 0 7.5-3.358 7.5-7.5v-80.359c0-4.142-3.358-7.5-7.5-7.5s-7.5 3.358-7.5 7.5v72.858h-115.109v-135.37h29.376v62.676c0 2.582 1.328 4.983 3.516 6.354 2.187 1.371 4.926 1.521 7.251.396l17.411-8.426 17.411 8.427c1.035.501 2.153.749 3.267.749 1.388 0 2.771-.385 3.984-1.146 2.188-1.372 3.516-3.772 3.516-6.354v-62.676h29.377v27.588c0 4.142 3.358 7.5 7.5 7.5zm-51.876 15.626-9.911-4.797c-1.032-.5-2.15-.749-3.268-.749s-2.235.25-3.268.749l-9.911 4.797v-50.714h26.357v50.714z"/><path d="m456.927 108.685h-34.964c-4.142 0-7.5 3.358-7.5 7.5s3.358 7.5 7.5 7.5h34.964c4.142 0 7.5-3.358 7.5-7.5s-3.358-7.5-7.5-7.5z"/></g></svg>