<?xml version="1.0" encoding="utf-8"?>
<!-- Generator: Adobe Illustrator 25.0.0, SVG Export Plug-In . SVG Version: 6.00 Build 0)  -->
<svg version="1.1" id="Capa_1" xmlns="http://www.w3.org/2000/svg" xmlns:xlink="http://www.w3.org/1999/xlink" x="0px" y="0px"
	 viewBox="0 0 496 496" style="enable-background:new 0 0 496 496;" xml:space="preserve">
<style type="text/css">
	.st0{fill:#F6DFC1;}
	.st1{fill:#F18B24;}
	.st2{fill:#F18B24;stroke:#F18B24;stroke-width:2.9582;stroke-miterlimit:10;}
	.st3{fill:#F18B24;stroke:#F18B24;stroke-width:0.7396;stroke-miterlimit:10;}
	.st4{fill:#F18B24;stroke:#F18B24;stroke-width:17;stroke-miterlimit:10;}
</style>
<circle class="st0" cx="360" cy="358.9" r="128"/>
<g>
	<g>
		<g>
			<path class="st1" d="M469.7-343.4l-77.4-77.4c-1.1-1.1-2.5-1.9-4.1-2.1L303-438.4c-4.2-0.8-8.2,2-9,6.2c-0.1,0.5-0.1,0.9-0.1,1.4
				c0,2.5-0.2,4.9-0.7,7.3l-53.5-13.4v-2.5c20.9-4.3,34.5-24.7,30.2-45.7c-4.2-20.9-24.7-34.4-45.6-30.1c-18,3.7-31,19.5-31,37.9
				h15.5c0-12.8,10.4-23.2,23.2-23.2c12.8,0,23.2,10.4,23.2,23.2c0,12.8-10.4,23.2-23.2,23.2c-4.3,0-7.7,3.5-7.7,7.7v9.4l-53.5,13.4
				c-0.4-2.4-0.6-4.9-0.7-7.3c0-2.3-1-4.5-2.8-5.9c-1.8-1.5-4.1-2.1-6.3-1.7L75.8-423c-1.5,0.3-3,1-4.1,2.1l-77.4,77.4
				c-3,3-3,7.9,0,10.9l61.9,61.9c3,3,7.9,3,10.9,0l17.8-17.8v51H30.7C9.4-237.4-7.9-220.1-8-198.8c0,12.3,5.8,23.9,15.7,31.2
				c-17.1,12.5-20.8,36.5-8.3,53.6c2.3,3.2,5.1,6,8.3,8.3c-17.2,12.6-20.8,36.8-8.2,54C6.8-41.8,18.4-35.9,30.7-36h278.7
				c2.1,0,4-0.8,5.5-2.3l61.9-61.9c1.4-1.5,2.2-3.4,2.2-5.5h0.1v-182.6l17.8,17.8c3,3,7.9,3,10.9,0l61.9-61.9
				C472.8-335.5,472.8-340.4,469.7-343.4z M232-422.9l56.3,14.1c-11.7,19.9-33.2,31.8-56.3,31.2c-23.1,0.7-44.6-11.3-56.3-31.2
				L232-422.9z M7.5-198.6c0-12.8,10.4-23.2,23.2-23.2H201c12.8,0,23.2,10.4,23.2,23.2s-10.4,23.2-23.2,23.2H30.7
				C17.9-175.4,7.5-185.8,7.5-198.6z M7.5-136.6c0-12.8,10.4-23.2,23.2-23.2H201c12.8,0,23.2,10.4,23.2,23.2
				c0,12.8-10.4,23.2-23.2,23.2H30.7C17.9-113.4,7.5-123.8,7.5-136.6z M201-51.5h-15.5H30.7c-12.8,0-23.2-10.4-23.2-23.2
				s10.4-23.2,23.2-23.2H201c12.8,0,23.2,10.4,23.2,23.2S213.9-51.5,201-51.5z M317.2-62.4v-35.5h35.5L317.2-62.4z M402.3-286.9
				l-48.7-48.7l-10.9,10.9l21,21v190.3h-54.2c-4.3,0-7.7,3.5-7.7,7.7v54.2h-69.9c12.9-16.7,9.8-40.7-6.9-53.6
				c-0.3-0.2-0.6-0.4-0.8-0.6c17.1-12.5,20.8-36.5,8.3-53.6c-2.3-3.2-5.1-6-8.3-8.3c17.2-12.6,20.8-36.8,8.2-54
				c-7.3-9.9-18.9-15.8-31.2-15.7H100.4v-66.5l21-21l-10.9-10.9L61.8-287l-51-51L81-408.2l74.3-13.5c5.1,33.6,37.5,59.6,76.7,59.6
				s71.7-26,76.7-59.6l74.3,13.5l70.3,70.2L402.3-286.9z"/>
			<rect x="23" y="-206.3" class="st1" width="185.8" height="15.5"/>
			<rect x="23" y="-144.4" class="st1" width="178.1" height="15.5"/>
			<rect x="23" y="-82.5" class="st1" width="178.1" height="15.5"/>
		</g>
	</g>
</g>
<g>
	<g>
		<path class="st2" d="M382,147.4c0-2.1-0.9-3.9-2.3-5.2l-21.1-30.1c6.3-0.2,11.4-5.4,11.4-11.8V82.2c0-6.5-5.3-11.8-11.8-11.8
			H227.8V37c0-16.4-13.3-29.7-29.7-29.7h-10.6c-16.4,0-29.7,13.3-29.7,29.7v33.5h-19.1c-6.5,0-11.8,5.3-11.8,11.8v18.1
			c0,6.4,5.1,11.6,11.4,11.8l-21.1,30.1c-1.4,1.3-2.3,3.1-2.3,5.2c0,0.3,0,0.6,0.1,0.8c0,0.4-0.1,0.7-0.1,1.1v261.3
			c0,0.2,0,0.4,0,0.5c0,0.1,0,0.3,0,0.4c0,1.1,0.2,2,0.6,2.9c0.4,1.1,0.9,2.1,1.5,3.1l21.2,30.3c-6.3,0.2-11.4,5.4-11.4,11.8v18.1
			c0,6.5,5.3,11.8,11.8,11.8h219.6c6.5,0,11.8-5.3,11.8-11.8v-18.1c0-6.4-5.1-11.6-11.4-11.8l21.2-30.3c0.7-0.9,1.2-2,1.5-3
			c0.4-0.9,0.6-1.9,0.6-2.9c0-0.1,0-0.3,0-0.4c0-0.2,0-0.4,0-0.5V149.3c0-0.4,0-0.7-0.1-1.1C382,148,382,147.7,382,147.4z
			 M187.6,21.4h10.6c8.6,0,15.6,7,15.6,15.6v33.5H172V37h0C172,28.4,179,21.4,187.6,21.4z M141.1,84.6h23.9h55.8h135.2v13.3h-10.8
			H151.9h-10.8L141.1,84.6L141.1,84.6z M155.6,112.1h185.8l19.7,28.3H227.4h-58.5h-33L155.6,112.1z M129.2,154.5h29.7
			c-6.3,19.9-17.6,68.9-7.3,142.1c0,0.1,0,0.2,0,0.3c0.1,0.8,13.1,73.7,11,107.6h-33.4L129.2,154.5L129.2,154.5z M355.9,475.3H141.1
			V462h10.8h193.2h10.8V475.3z M367.8,404.5h-53.8l0,0c-3.9,0-7.1,3.2-7.1,7.1c0,3.9,3.2,7.1,7.1,7.1h47.7l-20.4,29.2H155.6
			l-20.4-29.2h33.7h58.5h38.1c3.9,0,7.1-3.2,7.1-7.1c0-3.9-3.2-7.1-7.1-7.1h-29.2c2.6-15.6,5.1-50.9-9.2-110.5
			c-4.1-17.2-6.6-36.3-7.1-55c-0.1-3.9-3.3-7-7.3-6.9c-3.9,0.1-7,3.4-6.9,7.3c0.6,20,3.1,39.5,7.5,57.9
			c14.7,61.4,10.9,95.4,8.6,107.2h-45.2c1.9-35.9-10.3-105.3-11.2-110c-10.6-76.4,3.4-125.8,8.3-140h43.4c-3.6,10.4-6.4,21.8-8.3,34
			c-0.6,3.9,2,7.5,5.9,8.1c3.9,0.6,7.5-2,8.1-5.9c2.1-13.2,5.3-25.4,9.4-36.2h135.6V404.5z"/>
	</g>
</g>
<g>
	<g>
		<path class="st3" d="M192.8,26.3c-9.2,0-16.7,7.5-16.7,16.7s7.5,16.7,16.7,16.7s16.7-7.5,16.7-16.7S202,26.3,192.8,26.3z
			 M192.8,45.5c-1.4,0-2.5-1.1-2.5-2.5c0-1.4,1.1-2.5,2.5-2.5s2.5,1.1,2.5,2.5C195.3,44.4,194.2,45.5,192.8,45.5z"/>
	</g>
</g>
<path class="st4" d="M216.5,184.5c0,0-6,37-3,64"/>
</svg>
