<?xml version="1.0" encoding="utf-8"?>
<!-- Generator: Adobe Illustrator 25.0.0, SVG Export Plug-In . SVG Version: 6.00 Build 0)  -->
<svg version="1.1" id="Capa_1" xmlns="http://www.w3.org/2000/svg" xmlns:xlink="http://www.w3.org/1999/xlink" x="0px" y="0px"
	 viewBox="0 0 496 496" style="enable-background:new 0 0 496 496;" xml:space="preserve">
<style type="text/css">
	.st0{fill:#F6DFC1;}
	.st1{fill:#F18B24;}
	.st2{fill:#F18B24;stroke:#F18B24;stroke-width:2;stroke-miterlimit:10;}
	.st3{fill:none;}
</style>
<circle class="st0" cx="360" cy="358.9" r="128"/>
<g>
	<g>
		<g>
			<path class="st1" d="M469.7-343.4l-77.4-77.4c-1.1-1.1-2.5-1.9-4.1-2.1L303-438.4c-4.2-0.8-8.2,2-9,6.2c-0.1,0.5-0.1,0.9-0.1,1.4
				c0,2.5-0.2,4.9-0.7,7.3l-53.5-13.4v-2.5c20.9-4.3,34.5-24.7,30.2-45.7c-4.2-20.9-24.7-34.4-45.6-30.1c-18,3.7-31,19.5-31,37.9
				h15.5c0-12.8,10.4-23.2,23.2-23.2c12.8,0,23.2,10.4,23.2,23.2c0,12.8-10.4,23.2-23.2,23.2c-4.3,0-7.7,3.5-7.7,7.7v9.4l-53.5,13.4
				c-0.4-2.4-0.6-4.9-0.7-7.3c0-2.3-1-4.5-2.8-5.9c-1.8-1.5-4.1-2.1-6.3-1.7L75.8-423c-1.5,0.3-3,1-4.1,2.1l-77.4,77.4
				c-3,3-3,7.9,0,10.9l61.9,61.9c3,3,7.9,3,10.9,0l17.8-17.8v51H30.7C9.4-237.4-7.9-220.1-8-198.8c0,12.3,5.8,23.9,15.7,31.2
				c-17.1,12.5-20.8,36.5-8.3,53.6c2.3,3.2,5.1,6,8.3,8.3c-17.2,12.6-20.8,36.8-8.2,54C6.8-41.8,18.4-35.9,30.7-36h278.7
				c2.1,0,4-0.8,5.5-2.3l61.9-61.9c1.4-1.5,2.2-3.4,2.2-5.5h0.1v-182.6l17.8,17.8c3,3,7.9,3,10.9,0l61.9-61.9
				C472.8-335.5,472.8-340.4,469.7-343.4z M232-422.9l56.3,14.1c-11.7,19.9-33.2,31.8-56.3,31.2c-23.1,0.7-44.6-11.3-56.3-31.2
				L232-422.9z M7.5-198.6c0-12.8,10.4-23.2,23.2-23.2H201c12.8,0,23.2,10.4,23.2,23.2s-10.4,23.2-23.2,23.2H30.7
				C17.9-175.4,7.5-185.8,7.5-198.6z M7.5-136.6c0-12.8,10.4-23.2,23.2-23.2H201c12.8,0,23.2,10.4,23.2,23.2
				c0,12.8-10.4,23.2-23.2,23.2H30.7C17.9-113.4,7.5-123.8,7.5-136.6z M201-51.5h-15.5H30.7c-12.8,0-23.2-10.4-23.2-23.2
				s10.4-23.2,23.2-23.2H201c12.8,0,23.2,10.4,23.2,23.2S213.9-51.5,201-51.5z M317.2-62.4v-35.5h35.5L317.2-62.4z M402.3-286.9
				l-48.7-48.7l-10.9,10.9l21,21v190.3h-54.2c-4.3,0-7.7,3.5-7.7,7.7v54.2h-69.9c12.9-16.7,9.8-40.7-6.9-53.6
				c-0.3-0.2-0.6-0.4-0.8-0.6c17.1-12.5,20.8-36.5,8.3-53.6c-2.3-3.2-5.1-6-8.3-8.3c17.2-12.6,20.8-36.8,8.2-54
				c-7.3-9.9-18.9-15.8-31.2-15.7H100.4v-66.5l21-21l-10.9-10.9L61.8-287l-51-51L81-408.2l74.3-13.5c5.1,33.6,37.5,59.6,76.7,59.6
				s71.7-26,76.7-59.6l74.3,13.5l70.3,70.2L402.3-286.9z"/>
			<rect x="23" y="-206.3" class="st1" width="185.8" height="15.5"/>
			<rect x="23" y="-144.4" class="st1" width="178.1" height="15.5"/>
			<rect x="23" y="-82.5" class="st1" width="178.1" height="15.5"/>
		</g>
	</g>
</g>
<g>
	<path class="st2" d="M444.5,324.3l-35.1-64.7c-1-2.7-3.6-4.6-6.6-4.6H122.3c-3.9,0-7,3.1-7,7c0,3.9,3.1,7,7,7h275.7l29.9,50.7H68.4
		l29.9-50.7h32.4c3.9,0,7-3.1,7-7c0-3.9-3.1-7-7-7H93.4c-2.9,0-5.5,1.8-6.6,4.6l-35.1,64.7c-0.8,2.1-0.5,4.6,0.8,6.4
		c1.3,1.9,3.5,3,5.7,3h28.1V479c0,3.9,3.1,7,7,7h235.7c3.9,0,7-3.1,7-7s-3.1-7-7-7H100.4v-14h295.4v14h-69.6c-3.9,0-7,3.1-7,7
		s3.1,7,7,7h76.6c3.9,0,7-3.1,7-7V333.8h28.1c2.3,0,4.4-1.1,5.7-3C445,328.9,445.3,326.5,444.5,324.3L444.5,324.3z M395.8,444H100.4
		V333.8h295.4V444z"/>
</g>
<g>
	<path class="st2" d="M242.7,245.8c1.3,1.6,3.3,2.6,5.4,2.6s4.1-0.9,5.4-2.6l43.2-52.5c1.7-2.1,2.1-5,0.9-7.4c-1.2-2.4-3.6-4-6.3-4
		h-18.8V96.3c0-3.9-3.1-7-7-7h-34.8c-3.9,0-7,3.1-7,7v85.5h-18.8c-2.7,0-5.2,1.6-6.3,4c-1.2,2.4-0.8,5.3,0.9,7.4L242.7,245.8z
		 M230.7,195.8c3.9,0,7-3.1,7-7v-85.5h20.8v85.5c0,3.9,3.1,7,7,7h11l-28.4,34.5l-28.4-34.5L230.7,195.8L230.7,195.8z"/>
</g>
<g>
	<path class="st2" d="M189.9,389.6h31.6c3.9,0,7-3.1,7-7s-3.1-7-7-7h-31.6c-3.9,0-7,3.1-7,7S186,389.6,189.9,389.6z"/>
</g>
<g>
	<path class="st2" d="M189.9,417.6h59.7c3.9,0,7-3.1,7-7s-3.1-7-7-7h-59.7c-3.9,0-7,3.1-7,7S186,417.6,189.9,417.6z"/>
</g>
<g>
	<path class="st2" d="M134.6,417.6h28c3.9,0,7-3.1,7-7v-28c0-3.9-3.1-7-7-7h-28c-3.9,0-7,3.1-7,7v28
		C127.6,414.5,130.8,417.6,134.6,417.6z M141.6,389.6h14v14h-14V389.6z"/>
</g>
<g>
	<path class="st2" d="M147.1,215.6H138c-3.9,0-7,3.1-7,7c0,3.9,3.1,7,7,7h26.1c3.9,0,7-3.1,7-7v-26.1c0-3.9-3.1-7-7-7s-7,3.1-7,7
		v9.3"/>
</g>
<g>
	<g>
		<path class="st2" d="M17.5,164.7h121.4c3.9,0,7-3.1,7-7V17.3c0-3.9-3.1-7-7-7H17.5c-3.9,0-7,3.1-7,7v115c0,3.9,3.1,7,7,7
			s7-3.1,7-7v-108h27.4v58.5c0,2.4,1.2,4.7,3.3,5.9c2,1.3,4.6,1.4,6.8,0.4l16.2-7.9l16.2,7.9c1,0.5,2,0.7,3,0.7
			c1.3,0,2.6-0.4,3.7-1.1c2-1.3,3.3-3.5,3.3-5.9V24.3h27.4v126.3H24.5V132c0-3.9-3.1-7-7-7s-7,3.1-7,7v25.6
			C10.5,161.5,13.7,164.7,17.5,164.7z M90.5,71.7l-9.2-4.5c-1-0.5-2-0.7-3-0.7s-2.1,0.2-3,0.7l-9.2,4.5V24.3h24.6L90.5,71.7
			L90.5,71.7z"/>
	</g>
	<g>
		<path class="st2" d="M94.6,125.8c3.9,0,7-3.1,7-7s-3.1-7-7-7H61.9c-3.9,0-7,3.1-7,7s3.1,7,7,7H94.6z"/>
	</g>
</g>
<g>
	<line class="st3" x1="163.2" y1="220.8" x2="163.2" y2="220.6"/>
</g>
<g>
	<path class="st2" d="M163.2,228.1c-1.9,0-3.8-0.7-5.3-2.2l-33.3-33.3c-2.9-2.9-2.9-7.6,0-10.6c2.9-2.9,7.6-2.9,10.6,0l33.3,33.3
		c2.9,2.9,2.9,7.6,0,10.6C167,227.3,165.1,228.1,163.2,228.1z"/>
</g>
<g>
	<path class="st2" d="M339.4,205.9v-9.3c0-3.9-3.1-7-7-7s-7,3.1-7,7v26.1c0,3.9,3.1,7,7,7h26.1c3.9,0,7-3.1,7-7c0-3.9-3.1-7-7-7
		h-9.1"/>
</g>
<g>
	<g>
		<path class="st2" d="M486,157.7V132c0-3.9-3.1-7-7-7c-3.9,0-7,3.1-7,7v18.6H364.6V24.3H392v58.5c0,2.4,1.2,4.6,3.3,5.9
			c1.1,0.7,2.4,1.1,3.7,1.1c1,0,2.1-0.2,3-0.7l16.2-7.9l16.2,7.9c2.2,1,4.7,0.9,6.8-0.4c2-1.3,3.3-3.5,3.3-5.9V24.3H472v108
			c0,3.9,3.1,7,7,7s7-3.1,7-7v-115c0-3.9-3.1-7-7-7H357.6c-3.9,0-7,3.1-7,7v140.3c0,3.9,3.1,7,7,7H479
			C482.9,164.7,486,161.5,486,157.7z M406,71.7V24.3h24.6v47.3l-9.2-4.5c-1-0.5-2-0.7-3-0.7c-1,0-2.1,0.2-3,0.7L406,71.7L406,71.7z"
			/>
	</g>
	<g>
		<path class="st2" d="M434.6,125.8c3.9,0,7-3.1,7-7s-3.1-7-7-7H402c-3.9,0-7,3.1-7,7s3.1,7,7,7H434.6z"/>
	</g>
</g>
<g>
	<line class="st3" x1="333.3" y1="220.8" x2="333.3" y2="220.6"/>
</g>
<g>
	<path class="st2" d="M333.3,228.1c-1.9,0-3.8-0.7-5.3-2.2c-2.9-2.9-2.9-7.6,0-10.6l33.3-33.3c2.9-2.9,7.6-2.9,10.6,0
		c2.9,2.9,2.9,7.6,0,10.6l-33.3,33.3C337.1,227.3,335.2,228.1,333.3,228.1z"/>
</g>
</svg>
