<?xml version="1.0" encoding="utf-8"?>
<!-- Generator: Adobe Illustrator 25.0.0, SVG Export Plug-In . SVG Version: 6.00 Build 0)  -->
<svg version="1.1" id="Capa_1" xmlns="http://www.w3.org/2000/svg" xmlns:xlink="http://www.w3.org/1999/xlink" x="0px" y="0px"
	 viewBox="0 0 496 496" style="enable-background:new 0 0 496 496;" xml:space="preserve">
<style type="text/css">
	.st0{fill:#F6DFC1;}
	.st1{fill:#F18B24;}
</style>
<circle class="st0" cx="360" cy="358.9" r="128"/>
<g>
	<g>
		<g>
			<path class="st1" d="M469.7-343.4l-77.4-77.4c-1.1-1.1-2.5-1.9-4.1-2.1L303-438.4c-4.2-0.8-8.2,2-9,6.2c-0.1,0.5-0.1,0.9-0.1,1.4
				c0,2.5-0.2,4.9-0.7,7.3l-53.5-13.4v-2.5c20.9-4.3,34.5-24.7,30.2-45.7c-4.2-20.9-24.7-34.4-45.6-30.1c-18,3.7-31,19.5-31,37.9
				h15.5c0-12.8,10.4-23.2,23.2-23.2c12.8,0,23.2,10.4,23.2,23.2c0,12.8-10.4,23.2-23.2,23.2c-4.3,0-7.7,3.5-7.7,7.7v9.4l-53.5,13.4
				c-0.4-2.4-0.6-4.9-0.7-7.3c0-2.3-1-4.5-2.8-5.9c-1.8-1.5-4.1-2.1-6.3-1.7L75.8-423c-1.5,0.3-3,1-4.1,2.1l-77.4,77.4
				c-3,3-3,7.9,0,10.9l61.9,61.9c3,3,7.9,3,10.9,0l17.8-17.8v51H30.7C9.4-237.4-7.9-220.1-8-198.8c0,12.3,5.8,23.9,15.7,31.2
				c-17.1,12.5-20.8,36.5-8.3,53.6c2.3,3.2,5.1,6,8.3,8.3c-17.2,12.6-20.8,36.8-8.2,54C6.8-41.8,18.4-35.9,30.7-36h278.7
				c2.1,0,4-0.8,5.5-2.3l61.9-61.9c1.4-1.5,2.2-3.4,2.2-5.5h0.1v-182.6l17.8,17.8c3,3,7.9,3,10.9,0l61.9-61.9
				C472.8-335.5,472.8-340.4,469.7-343.4z M232-422.9l56.3,14.1c-11.7,19.9-33.2,31.8-56.3,31.2c-23.1,0.7-44.6-11.3-56.3-31.2
				L232-422.9z M7.5-198.6c0-12.8,10.4-23.2,23.2-23.2H201c12.8,0,23.2,10.4,23.2,23.2s-10.4,23.2-23.2,23.2H30.7
				C17.9-175.4,7.5-185.8,7.5-198.6z M7.5-136.6c0-12.8,10.4-23.2,23.2-23.2H201c12.8,0,23.2,10.4,23.2,23.2
				c0,12.8-10.4,23.2-23.2,23.2H30.7C17.9-113.4,7.5-123.8,7.5-136.6z M201-51.5h-15.5H30.7c-12.8,0-23.2-10.4-23.2-23.2
				s10.4-23.2,23.2-23.2H201c12.8,0,23.2,10.4,23.2,23.2S213.9-51.5,201-51.5z M317.2-62.4v-35.5h35.5L317.2-62.4z M402.3-286.9
				l-48.7-48.7l-10.9,10.9l21,21v190.3h-54.2c-4.3,0-7.7,3.5-7.7,7.7v54.2h-69.9c12.9-16.7,9.8-40.7-6.9-53.6
				c-0.3-0.2-0.6-0.4-0.8-0.6c17.1-12.5,20.8-36.5,8.3-53.6c-2.3-3.2-5.1-6-8.3-8.3c17.2-12.6,20.8-36.8,8.2-54
				c-7.3-9.9-18.9-15.8-31.2-15.7H100.4v-66.5l21-21l-10.9-10.9L61.8-287l-51-51L81-408.2l74.3-13.5c5.1,33.6,37.5,59.6,76.7,59.6
				s71.7-26,76.7-59.6l74.3,13.5l70.3,70.2L402.3-286.9z"/>
			<rect x="23" y="-206.3" class="st1" width="185.8" height="15.5"/>
			<rect x="23" y="-144.4" class="st1" width="178.1" height="15.5"/>
			<rect x="23" y="-82.5" class="st1" width="178.1" height="15.5"/>
		</g>
	</g>
</g>
<g id="Outline">
	<path class="st1" d="M479,400h-8V24c0-4.4-3.6-8-8-8H31c-4.4,0-8,3.6-8,8v376h-8c-4.4,0-8,3.6-8,8v32c0,4.4,3.6,8,8,8h24v24
		c0,4.4,3.6,8,8,8h48c4.4,0,8-3.6,8-8v-24h112v24c0,4.4,3.6,8,8,8h48c4.4,0,8-3.6,8-8v-24h112v24c0,4.4,3.6,8,8,8h48
		c4.4,0,8-3.6,8-8v-24h24c4.4,0,8-3.6,8-8v-32C487,403.6,483.4,400,479,400z M327,400V288h32v40c0,4.4,3.6,8,8,8h48c4.4,0,8-3.6,8-8
		v-40h32v112H327z M87,288h32v32H87V288z M39,272V160h32v40c0,4.4,3.6,8,8,8h48c4.4,0,8-3.6,8-8v-40h32v112H39z M87,160h32v32H87
		V160z M183,160h32v40c0,4.4,3.6,8,8,8h48c4.4,0,8-3.6,8-8v-40h32v112H183V160z M231,32h32v32h-32V32z M223,80h48c4.4,0,8-3.6,8-8
		V32h32v112H183V32h32v40C215,76.4,218.6,80,223,80z M231,160h32v32h-32V160z M375,160h32v32h-32V160z M367,208h48c4.4,0,8-3.6,8-8
		v-40h32v112H327V160h32v40C359,204.4,362.6,208,367,208z M375,288h32v32h-32V288z M231,288h32v32h-32V288z M215,288v40
		c0,4.4,3.6,8,8,8h48c4.4,0,8-3.6,8-8v-40h32v112H183V288H215z M455,144H327V32h32v40c0,4.4,3.6,8,8,8h48c4.4,0,8-3.6,8-8V32h32V144
		z M375,32h32v32h-32V32z M87,32h32v32H87V32z M71,32v40c0,4.4,3.6,8,8,8h48c4.4,0,8-3.6,8-8V32h32v112H39V32H71z M39,288h32v40
		c0,4.4,3.6,8,8,8h48c4.4,0,8-3.6,8-8v-40h32v112H39V288z M87,464H55v-16h32V464z M263,464h-32v-16h32V464z M439,464h-32v-16h32V464
		z M471,432H23v-16h448V432z"/>
	<path class="st1" d="M423,368h16v16h-16V368z"/>
	<path class="st1" d="M279,368h16v16h-16V368z"/>
	<path class="st1" d="M423,240h16v16h-16V240z"/>
	<path class="st1" d="M279,240h16v16h-16V240z"/>
	<path class="st1" d="M135,368h16v16h-16V368z"/>
	<path class="st1" d="M135,240h16v16h-16V240z"/>
	<path class="st1" d="M423,112h16v16h-16V112z"/>
	<path class="st1" d="M279,112h16v16h-16V112z"/>
	<path class="st1" d="M135,112h16v16h-16V112z"/>
</g>
</svg>
