<?xml version="1.0" encoding="utf-8"?>
<!-- Generator: Adobe Illustrator 25.0.0, SVG Export Plug-In . SVG Version: 6.00 Build 0)  -->
<svg version="1.1" id="Layer_3" xmlns="http://www.w3.org/2000/svg" xmlns:xlink="http://www.w3.org/1999/xlink" x="0px" y="0px"
	 viewBox="0 0 512 512" style="enable-background:new 0 0 512 512;" xml:space="preserve">
<style type="text/css">
	.st0{opacity:0;fill:#F6DFC1;}
	.st1{fill:#FFFFFF;}
	.st2{fill:#F18B24;}
	.st3{fill:none;}
</style>
<circle class="st0" cx="372.4" cy="372.4" r="128"/>
<path class="st1" d="M-113.9,156.1l-3.4-1l17.6-17.6c42.2-42.2,42.2-111,0-153.2c-34-34-87.2-41.5-129.2-18.1l-23.6,13.1
	C-295,2.9-333.9,32.2-368.2,66.5c-25.8,25.8-48.9,54.4-68.7,85l-15.9,4.5c-46.3,13.2-78.6,56-78.6,104.2
	c0,59.7,48.6,108.3,108.3,108.3h279.4c59.7,0,108.3-48.6,108.3-108.3C-35.4,212.1-67.7,169.3-113.9,156.1L-113.9,156.1z
	 M-116.2,172.1c-1,21.2-2.9,42.4-5.9,63.4c-0.2,1.2-2.3,1.2-2.4,0c-3.2-22.3-5.2-45-6.1-67.6l12.4,3.5
	C-117.6,171.7-116.9,171.9-116.2,172.1L-116.2,172.1z M-221.2-19.8c0.6-0.4,1.3-0.6,2-1c14.3,15.7,28,32.1,40.6,49
	c0.4,0.5,0.3,1.2-0.1,1.6c-0.4,0.4-1.1,0.5-1.6,0.1c-18-13.5-35.5-28.1-52.1-43.4L-221.2-19.8z M-247.1-5.4
	c18.2,17,37.4,33.1,57.2,48c3.1,2.3,6.7,3.4,10.3,3.4c4.4,0,8.9-1.7,12.2-5c6-6,6.7-15.7,1.6-22.5c-11.8-15.8-24.6-31-37.8-45.8
	c32.2-9.9,68.1-1.6,92.5,22.8c36,36,36,94.6,0,130.6l-23.9,23.9l-5-1.4c-44.6-12.8-90.8-19.3-137.1-19.9
	c-14.6-17.8-30.1-35.1-46.3-51.3l-16.1-16.1c7.9-7.2,16-14.2,24.4-20.8l3,3c23.1,23.1,48,44.7,74.1,64.2c3.1,2.3,6.7,3.4,10.3,3.4
	c4.4,0,8.9-1.7,12.2-5c6-6,6.7-15.7,1.6-22.5c-18.9-25.2-39.7-49.2-61.9-71.6C-266.4,5.9-256.9,0.1-247.1-5.4L-247.1-5.4z
	 M-211.4,149.7c5.3,0.8,10.7,1.6,16,2.5c0,31.8-2.3,63.8-6.8,95.2c-0.2,1.2-2.3,1.2-2.4,0c-4.5-31.5-6.8-63.7-6.8-95.5V149.7z
	 M-291.4,144.7c2.7,0,5.3-0.1,8-0.1s5.3,0.1,8,0.1V168c0,31.8-2.3,64-6.8,95.5c-0.2,1.2-2.3,1.2-2.4,0c-4.5-31.5-6.8-63.7-6.8-95.5
	V144.7z M-289.2,21.1c22.4,22.5,43.5,46.7,62.5,72.1c0.4,0.5,0.3,1.2-0.1,1.6s-1.1,0.5-1.6,0.1c-25.5-19.1-49.8-40.2-72.3-62.7
	l-1.6-1.6C-298,27.4-293.6,24.2-289.2,21.1z M-351.1,72.3l16.5,16.5c12.8,12.8,24.9,26.3,36.7,40.1c-5.5,0.2-11,0.4-16.4,0.7
	c-10.8-9.5-21.4-19.4-31.6-29.6l-16.4-16.4c1.9-1.9,3.6-3.9,5.5-5.8C-355,76-353,74.1-351.1,72.3L-351.1,72.3z M-402.5,134
	c2.3,2.3,4.4,4.6,6.6,6.9c-5.8,1.3-11.5,2.6-17.2,4.1c3-4.2,6-8.4,9.1-12.5L-402.5,134z M-377.3,137.1c-4.6-4.9-9.2-9.7-13.9-14.4
	l-3-3c6.7-8.4,13.7-16.5,20.9-24.4l16.1,16.1c6.8,6.8,13.8,13.4,20.9,20C-350.1,132.7-363.7,134.7-377.3,137.1z M-355.4,149.7v2.3
	c0,31.8-2.3,64-6.8,95.5c-0.2,1.2-2.3,1.2-2.4,0c-4.5-31.4-6.8-63.5-6.8-95.2C-366,151.3-360.7,150.5-355.4,149.7L-355.4,149.7z
	 M-436,167.9c-0.9,22.6-3,45.3-6.1,67.6c-0.2,1.2-2.3,1.2-2.4,0c-3-20.9-4.9-42.2-5.9-63.4c0.7-0.2,1.4-0.5,2.1-0.7L-436,167.9z
	 M-143.7,352.5H-423c-50.9,0-92.3-41.4-92.3-92.3c0-34.5,19.5-65.7,49.1-81.5c1.1,19.7,3,39.5,5.8,59c1.2,8.4,8.5,14.8,17,14.8
	s15.8-6.4,17-14.8c3.5-24.6,5.6-49.6,6.5-74.4c10.8-3,21.6-5.7,32.5-8c0.2,31.5,2.4,63.2,6.9,94.4c1.2,8.4,8.5,14.8,17,14.8
	c8.5,0,15.8-6.4,17-14.8c4.6-32.3,7-65.2,7-97.8v-4.3c10.6-1.2,21.3-2,32-2.5V168c0,32.6,2.3,65.5,7,97.8c1.2,8.4,8.5,14.8,17,14.8
	s15.8-6.4,17-14.8c4.6-32.3,7-65.2,7-97.8v-22.8c10.7,0.5,21.4,1.3,32,2.5v4.3c0,32.6,2.3,65.5,7,97.8c1.2,8.4,8.5,14.8,17,14.8
	s15.8-6.4,17-14.8c4.5-31.2,6.7-62.9,6.9-94.4c10.9,2.3,21.8,5,32.5,8c0.8,24.9,3,49.9,6.5,74.4c1.2,8.4,8.5,14.8,17,14.8
	s15.8-6.4,17-14.8c2.8-19.5,4.7-39.3,5.8-59c29.6,15.8,49.1,47,49.1,81.5C-51.4,311.1-92.8,352.5-143.7,352.5L-143.7,352.5z"/>
<g>
	<path class="st1" d="M178.1,238.4h-24.9c-2.9-10.6-12.5-17.9-23.4-18h-26.6H89.4c-10.9,0.1-20.5,7.4-23.4,18H41.1
		c-16.6,0.1-30,13.6-29.9,30.2v144.8v16.2v41.2c0,16.4,13.2,29.7,29.6,29.7c0.1,0,0.2,0,0.3,0h137c16.5,0.2,29.9-13.1,30.1-29.5
		c0-0.1,0-0.1,0-0.2V268.5C208.2,251.9,194.8,238.4,178.1,238.4z M79.2,244.5c0-5.6,4.5-10.2,10.2-10.2h40.7
		c5.6,0,10.2,4.5,10.2,10.2v0.7c0,5.6-4.5,10.2-10.2,10.2c0,0,0,0,0,0H89.4c-5.6,0-10.2-4.5-10.2-10.2V244.5z M194.2,470.6
		c0,8.7-7.1,15.8-15.9,15.7c-0.1,0-0.1,0-0.2,0h-137c-8.6,0.1-15.7-6.7-15.9-15.4c0-0.1,0-0.2,0-0.4V268.5
		c-0.1-8.8,7-16.1,15.9-16.2c0,0,0,0,0,0h25.2c3.1,10.2,12.5,17.1,23.1,17h40.4c10.6,0.1,20.1-6.8,23.1-17h25.2
		c8.9,0.1,16.1,7.3,16.1,16.2V470.6z"/>
	<polygon class="st2" points="89.2,220.4 89.4,220.4 89.2,220.3 	"/>
</g>
<polygon class="st3" points="247,111 181,150.1 114.4,189.2 181,228.3 202.1,240.7 247,214.5 "/>
<polygon class="st3" points="239.4,96.7 176.9,59.9 102.4,103.6 35.8,142.7 98.3,179.5 172.9,135.8 "/>
<polygon class="st3" points="330.1,228.3 396.6,189.2 330.1,150.1 264,111 264,214.5 308.9,240.7 "/>
<polygon class="st3" points="255.5,228.8 218.6,250.4 255.5,272 292.4,250.4 "/>
<polygon class="st3" points="246.1,447.6 246.1,296.8 194.2,327.3 194.2,417.5 "/>
<path class="st3" d="M330,334.6l-66.8-39.4v152.5l139.8-81.1v-69.7l-64.3,37.8C335.8,336.3,332.3,336.3,330,334.6z"/>
<polygon class="st3" points="334.1,59.9 271.6,96.7 338.1,135.8 412.7,179.5 475.2,142.7 408.7,103.6 "/>
<polygon class="st3" points="338.1,242.1 271.6,281.2 334.1,318 406.5,275.6 408.7,274.3 475.2,235.2 412.7,198.4 "/>
<path class="st1" d="M89.4,269.4h4.5l-27.3-16C70,263,79.1,269.5,89.4,269.4z"/>
<path class="st1" d="M499.4,145.2c0.6-2.1,0.4-4.5-0.8-6.5c-0.6-1.2-1.8-2.3-3-3l-78.5-46l-79-46.5c-2.8-1.7-5.8-1.7-8.5,0L255.5,87
	L181,43.4c-2.4-1.7-5.8-1.7-8.6,0L93.8,89.8l-78.1,46c-1.2,0.6-2.3,1.8-3,3c-2.3,4-1,9.1,2.9,11.3l66.6,39.1l-67,39.1
	c-1.9,1.1-3.3,2.9-3.8,5.1c-0.5,2.1-0.2,4.3,0.9,6.2c0.6,1.2,1.7,2.3,3,3l19.2,11.3c2-0.9,4.2-1.5,6.6-1.5c0,0,0,0,0,0H65
	l-29.2-17.1l62.5-36.8l74.6,43.7l66.6,39.1l-45.2,26.6v19.4l51.9-30.4v150.7l-51.9-30.1V436l56,32.3l0.3,0.2v0.2l1.1,0.5
	c1.3,0.6,2.1,0.6,3.1,0.6c0.9,0,1.6,0,2.8-0.5c0.4-0.1,0.8-0.3,1.1-0.6c0.3-0.1,0.5-0.3,0.8-0.6L415,378c2.9-1.8,4-4.7,4-6.9v-84
	l76.3-44.6c1.2-0.6,2.3-1.8,3-3c1.1-1.9,1.4-4.1,0.9-6.2c-0.5-2.2-1.9-4-3.8-5.1l-66.6-39.1l66.5-39.1
	C497.3,149.1,498.8,147.3,499.4,145.2z M264,111l66.1,39.1l66.6,39.1l-66.6,39.1l-21.1,12.4L264,214.5V111z M35.8,142.7l66.6-39.1
	l74.6-43.7l62.5,36.8l-66.6,39.1l-74.6,43.7L35.8,142.7z M181,228.3l-66.6-39.1l66.6-39.1L247,111v103.5l-44.9,26.2L181,228.3z
	 M255.5,272l-36.9-21.6l36.9-21.6l36.9,21.6L255.5,272z M402.9,366.5l-139.8,81.1V295.1l66.8,39.4c2.4,1.7,5.8,1.7,8.6,0.1
	l64.3-37.8V366.5z M475.2,235.2l-66.6,39.1l-2.2,1.3L334.1,318l-62.5-36.8l66.6-39.1l74.6-43.7L475.2,235.2z M412.7,179.5
	l-74.6-43.7l-66.6-39.1l62.5-36.8l74.6,43.7l66.6,39.1L412.7,179.5z"/>
<path class="st1" d="M66.3,252.4H65l1.7,1C66.5,253,66.4,252.7,66.3,252.4z"/>
<polygon class="st2" points="89.2,620.2 89.4,620.2 89.2,620.2 "/>
<path class="st1" d="M49.2,339.4h7.3c3.9,0,7-3.1,7-7s-3.1-7-7-7h-0.3v-19h19.3c0.9,2.9,3.6,4.8,6.7,4.7c3.9,0,7-3.1,7-7v-4.7
	c0-3.9-3.2-7-7.1-7h-33c-3.9,0-7,3.2-6.9,7c0,0,0,0,0,0v33C42.2,336.2,45.3,339.3,49.2,339.4C49.1,339.4,49.2,339.4,49.2,339.4z"/>
<path class="st1" d="M49.2,403.4h33c3.9,0,7-3.1,7-7v-33c0-3.9-3.1-7-7-7h-33c-3.9,0-7,3.1-7,7v33C42.2,400.2,45.3,403.4,49.2,403.4
	z M56.2,370.4h19v19h-19V370.4z"/>
<path class="st1" d="M56.5,453.4h-0.3v-19h18.9c0.1,3.9,3.3,7,7.2,6.9c3.8-0.1,6.8-3.1,6.9-6.9v-6.7c0-3.9-3.1-7.1-7.1-7.3h-33
	c-3.9,0.1-7,3.4-6.9,7.3v33c0,3.7,3,6.8,6.7,6.8c0.1,0,0.1,0,0.2,0h7.3c3.9,0,7-3.1,7-7S60.4,453.4,56.5,453.4L56.5,453.4z"/>
<path class="st1" d="M98.3,300.9l-20.5,20.5l-6.2-6.2c-2.7-2.7-7.2-2.7-9.9,0c-2.7,2.7-2.7,7.2,0,9.9l11.2,11.2
	c2.7,2.7,7.2,2.7,9.9,0c0,0,0,0,0,0l25.5-25.5c2.7-2.7,2.7-7.2,0-9.9S101,298.2,98.3,300.9L98.3,300.9z"/>
<path class="st1" d="M98.3,430.2l-20.5,20.5l-6.2-6.2c-2.7-2.7-7.2-2.7-9.9,0c-2.7,2.7-2.7,7.2,0,9.9l11.2,11.2
	c2.7,2.7,7.2,2.7,9.9,0c0,0,0,0,0,0l25.5-25.5c2.7-2.7,2.7-7.2,0-9.9S101,427.5,98.3,430.2L98.3,430.2z"/>
<path class="st1" d="M170.1,309.4h-44c-3.9,0-7,3.1-7,7s3.1,7,7,7h44c3.9,0,7-3.1,7-7S173.9,309.4,170.1,309.4z"/>
<path class="st1" d="M170.1,373.4h-44c-3.9,0-7,3.1-7,7s3.1,7,7,7h44c3.9,0,7-3.1,7-7S173.9,373.4,170.1,373.4z"/>
<path class="st1" d="M170.1,437.4h-44c-3.9,0-7,3.1-7,7s3.1,7,7,7h44c3.9,0,7-3.1,7-7S173.9,437.4,170.1,437.4z"/>
</svg>
