<?xml version="1.0" encoding="utf-8"?>
<!-- Generator: Adobe Illustrator 25.0.0, SVG Export Plug-In . SVG Version: 6.00 Build 0)  -->
<svg version="1.1" id="레이어_1" xmlns="http://www.w3.org/2000/svg" xmlns:xlink="http://www.w3.org/1999/xlink" x="0px"
	 y="0px" viewBox="0 0 512 512" style="enable-background:new 0 0 512 512;" xml:space="preserve">
<style type="text/css">
	.st0{fill:#F9AA4B;}
	.st1{fill:#FF8431;}
	.st2{fill:#FCF0D6;}
	.st3{fill:#FFDEBB;}
</style>
<path class="st0" d="M256,512C114.5,512,0,397.3,0,256C0,114.5,114.5,0,256,0c141.5,0,256,114.5,256,256
	C512,397.5,397.3,512,256,512z"/>
<path class="st1" d="M256,0v512c141.3,0,256-114.5,256-256C512,114.5,397.5,0,256,0z"/>
<path class="st2" d="M256,316c-74.5,0-145.5,32.6-197.4,103c103.4,124.9,294.7,123.9,396.7-2.2C430.1,391.7,373.3,316,256,316z"/>
<path class="st3" d="M455.2,416.7C407.1,476.3,334.9,512,256,512V316C373.3,316,430.1,391.7,455.2,416.7z"/>
<path class="st2" d="M256,271c-49.6,0-90-40.4-90-90v-30c0-49.6,40.4-90,90-90c49.6,0,90,40.4,90,90v30C346,230.6,305.6,271,256,271
	z"/>
<path class="st3" d="M256,61v210c49.6,0,90-40.4,90-90v-30C346,101.4,305.6,61,256,61z"/>
</svg>
