<svg enable-background="new 0 0 24 24" height="512" viewBox="0 0 24 24" width="512" xmlns="http://www.w3.org/2000/svg"><path d="m18 24c-3.309 0-6-2.691-6-6s2.691-6 6-6c1.977 0 3.827.976 4.951 2.611.156.228.099.539-.129.695-.229.157-.539.1-.695-.129-.938-1.363-2.48-2.177-4.127-2.177-2.757 0-5 2.243-5 5s2.243 5 5 5 5-2.243 5-5c0-.276.224-.5.5-.5s.5.224.5.5c0 3.309-2.691 6-6 6z"/><path d="m22.544 15.391h-2.392c-.276 0-.5-.224-.5-.5s.224-.5.5-.5h1.892v-1.891c0-.276.224-.5.5-.5s.5.224.5.5v2.391c0 .276-.224.5-.5.5z"/><path d="m10.5 20h-9.174c-.731 0-1.326-.595-1.326-1.326v-12.174c0-.276.224-.5.5-.5h19c.276 0 .5.224.5.5v4c0 .276-.224.5-.5.5s-.5-.224-.5-.5v-3.5h-18v11.674c0 .18.146.326.326.326h9.174c.276 0 .5.224.5.5s-.224.5-.5.5z"/><path d="m19.5 7c-.176 0-.347-.093-.438-.259l-3.02-5.482c-.087-.16-.255-.259-.438-.259h-11.208c-.183 0-.351.099-.438.259l-3.02 5.482c-.133.242-.438.33-.679.197-.242-.133-.33-.438-.197-.679l3.02-5.482c.263-.48.767-.777 1.314-.777h11.209c.547 0 1.051.297 1.314.776l3.019 5.482c.134.242.046.546-.196.679-.077.043-.16.063-.242.063z"/><path d="m10 7c-.276 0-.5-.224-.5-.5v-6c0-.276.224-.5.5-.5s.5.224.5.5v6c0 .276-.224.5-.5.5z"/></svg>