<?xml version="1.0" encoding="utf-8"?>
<!-- Generator: Adobe Illustrator 25.0.0, SVG Export Plug-In . SVG Version: 6.00 Build 0)  -->
<svg version="1.1" id="Capa_1" xmlns="http://www.w3.org/2000/svg" xmlns:xlink="http://www.w3.org/1999/xlink" x="0px" y="0px"
	 viewBox="0 0 496 496" style="enable-background:new 0 0 496 496;" xml:space="preserve">
<style type="text/css">
	.st0{opacity:0;fill:#F6DFC1;}
	.st1{fill:#F18B24;}
	.st2{fill:#FFFFFF;}
	.st3{fill:none;stroke:#FFFFFF;stroke-width:17.5959;stroke-linecap:round;stroke-linejoin:round;stroke-miterlimit:10;}
</style>
<circle class="st0" cx="360" cy="358.9" r="128"/>
<g>
	<g>
		<g>
			<path class="st1" d="M469.7-343.4l-77.4-77.4c-1.1-1.1-2.5-1.9-4.1-2.1L303-438.4c-4.2-0.8-8.2,2-9,6.2c-0.1,0.5-0.1,0.9-0.1,1.4
				c0,2.5-0.2,4.9-0.7,7.3l-53.5-13.4v-2.5c20.9-4.3,34.5-24.7,30.2-45.7c-4.2-20.9-24.7-34.4-45.6-30.1c-18,3.7-31,19.5-31,37.9
				h15.5c0-12.8,10.4-23.2,23.2-23.2c12.8,0,23.2,10.4,23.2,23.2c0,12.8-10.4,23.2-23.2,23.2c-4.3,0-7.7,3.5-7.7,7.7v9.4l-53.5,13.4
				c-0.4-2.4-0.6-4.9-0.7-7.3c0-2.3-1-4.5-2.8-5.9c-1.8-1.5-4.1-2.1-6.3-1.7L75.8-423c-1.5,0.3-3,1-4.1,2.1l-77.4,77.4
				c-3,3-3,7.9,0,10.9l61.9,61.9c3,3,7.9,3,10.9,0l17.8-17.8v51H30.7C9.4-237.4-7.9-220.1-8-198.8c0,12.3,5.8,23.9,15.7,31.2
				c-17.1,12.5-20.8,36.5-8.3,53.6c2.3,3.2,5.1,6,8.3,8.3c-17.2,12.6-20.8,36.8-8.2,54C6.8-41.8,18.4-35.9,30.7-36h278.7
				c2.1,0,4-0.8,5.5-2.3l61.9-61.9c1.4-1.5,2.2-3.4,2.2-5.5h0.1v-182.6l17.8,17.8c3,3,7.9,3,10.9,0l61.9-61.9
				C472.8-335.5,472.8-340.4,469.7-343.4z M232-422.9l56.3,14.1c-11.7,19.9-33.2,31.8-56.3,31.2c-23.1,0.7-44.6-11.3-56.3-31.2
				L232-422.9z M7.5-198.6c0-12.8,10.4-23.2,23.2-23.2H201c12.8,0,23.2,10.4,23.2,23.2s-10.4,23.2-23.2,23.2H30.7
				C17.9-175.4,7.5-185.8,7.5-198.6z M7.5-136.6c0-12.8,10.4-23.2,23.2-23.2H201c12.8,0,23.2,10.4,23.2,23.2
				c0,12.8-10.4,23.2-23.2,23.2H30.7C17.9-113.4,7.5-123.8,7.5-136.6z M201-51.5h-15.5H30.7c-12.8,0-23.2-10.4-23.2-23.2
				s10.4-23.2,23.2-23.2H201c12.8,0,23.2,10.4,23.2,23.2S213.9-51.5,201-51.5z M317.2-62.4v-35.5h35.5L317.2-62.4z M402.3-286.9
				l-48.7-48.7l-10.9,10.9l21,21v190.3h-54.2c-4.3,0-7.7,3.5-7.7,7.7v54.2h-69.9c12.9-16.7,9.8-40.7-6.9-53.6
				c-0.3-0.2-0.6-0.4-0.8-0.6c17.1-12.5,20.8-36.5,8.3-53.6c-2.3-3.2-5.1-6-8.3-8.3c17.2-12.6,20.8-36.8,8.2-54
				c-7.3-9.9-18.9-15.8-31.2-15.7H100.4v-66.5l21-21l-10.9-10.9L61.8-287l-51-51L81-408.2l74.3-13.5c5.1,33.6,37.5,59.6,76.7,59.6
				s71.7-26,76.7-59.6l74.3,13.5l70.3,70.2L402.3-286.9z"/>
			<rect x="23" y="-206.3" class="st1" width="185.8" height="15.5"/>
			<rect x="23" y="-144.4" class="st1" width="178.1" height="15.5"/>
			<rect x="23" y="-82.5" class="st1" width="178.1" height="15.5"/>
		</g>
	</g>
</g>
<path class="st2" d="M436,365.5V164.1c0-3-1.4-5.7-3.8-7.5L409.3,140l18-11.3c2.6-1.6,4.2-4.4,4.3-7.4c0.1-3-1.2-6-3.7-7.8
	l-16.7-12.7V95h15.4c5.1,0,9.3-4.1,9.3-9.3V67.2c0-30.1-24.5-54.6-54.6-54.6H65.6c-0.1,0-0.2,0-0.3,0c-0.2,0-0.4,0-0.6,0
	c-14.6,0-28.1,7.2-38.1,20.3C17,45.2,11.8,61.5,11.8,78.7c0,30.9,20.3,56.1,45.2,56.1h51.2v146.8c0,3.1,1.6,6.1,4.2,7.8l18.2,11.8
	l-19.3,17.2c-2,1.8-3.1,4.3-3.1,6.9v80.3c0,0.5,0.1,1,0.1,1.5c-0.1,0.5-0.1,1-0.1,1.5c0,23.6,6.1,43.4,17.6,57.3
	c11.1,13.5,26.9,20.9,44.5,20.9h254.6c33.7,0,61.1-27.4,61.1-61.1C486,395.7,464.4,370.7,436,365.5z M87.8,116.3
	c2.7-5.1,4.3-11.1,4.3-17.4c0-21.4-13.8-36.3-33.6-36.3c-5.1,0-9.3,4.1-9.3,9.3c0,5.1,4.1,9.3,9.3,9.3c9.5,0,15.1,6.6,15.1,17.7
	c0,11.3-8.6,17.4-16.6,17.4c-14.4,0-26.6-17.2-26.6-37.6c0-26.2,15.4-47.6,34.3-47.6c13.1,0,23.3,4.1,30.4,12.1
	c8.7,9.9,13.2,25.9,13.2,47.6v25.5H87.8z M140.1,454c-8.7-10.6-13.4-26.4-13.4-45.6c0-0.5-0.1-1-0.1-1.5c0.1-0.5,0.1-1,0.1-1.5
	v-76.1l25.2-22.6c2.2-1.9,3.3-4.7,3.1-7.6c-0.2-2.9-1.8-5.5-4.2-7.1l-24.1-15.6V90.8c0-26.3-5.9-46.4-17.7-59.7h272.3
	c19.9,0,36.1,16.2,36.1,36.1v9.3H402c-5.1,0-9.3,4.1-9.3,9.3v19.8c0,2.9,1.4,5.6,3.7,7.4l9.7,7.3l-18.2,11.4
	c-2.6,1.6-4.2,4.5-4.3,7.5c-0.1,3.1,1.3,6,3.8,7.8l30.1,21.9v195.6H182c-0.5,0-0.9,0-1.3,0.1c-0.9-0.1-1.8-0.1-2.7-0.1
	c-19.7,0-35.1,15.8-35.1,36c0,21.4,13.8,36.3,33.6,36.3c5.1,0,9.3-4.1,9.3-9.3c0-5.1-4.1-9.3-9.3-9.3c-9.5,0-15.1-6.6-15.1-17.7
	c0-11.3,8.6-17.4,16.6-17.4c14.4,0,26.6,17.2,26.6,37.6c0,26.2-15.4,47.6-34.3,47.6C158.2,468.2,147.7,463.3,140.1,454z
	 M424.9,468.2H207.1c0.5-0.6,1-1.2,1.4-1.8c8.9-11.6,14-26.7,14.6-42.7h144.4c5.1,0,9.3-4.1,9.3-9.3c0-5.1-4.1-9.3-9.3-9.3H221.4
	c-1.9-8.4-5.4-15.9-9.9-22.2h213.4c23.5,0,42.6,19.1,42.6,42.6S448.4,468.2,424.9,468.2z"/>
<path class="st2" d="M187.2,101.3c2.4,0,4.8-1,6.5-2.7c1.7-1.7,2.7-4.1,2.7-6.5s-1-4.8-2.7-6.5c-1.7-1.7-4.1-2.7-6.5-2.7
	c-2.4,0-4.8,1-6.5,2.7c-1.7,1.7-2.7,4.1-2.7,6.5s1,4.8,2.7,6.5C182.4,100.3,184.8,101.3,187.2,101.3z"/>
<path class="st2" d="M226.7,101.3h133.7c5.1,0,9.3-4.1,9.3-9.3s-4.1-9.3-9.3-9.3H226.7c-5.1,0-9.3,4.1-9.3,9.3
	S221.6,101.3,226.7,101.3z"/>
<path class="st2" d="M187.2,153.2h173.2c5.1,0,9.3-4.1,9.3-9.3s-4.1-9.3-9.3-9.3H187.2c-5.1,0-9.3,4.1-9.3,9.3
	S182.1,153.2,187.2,153.2z"/>
<path class="st2" d="M187.2,205h173.2c5.1,0,9.3-4.1,9.3-9.3s-4.1-9.3-9.3-9.3H187.2c-5.1,0-9.3,4.1-9.3,9.3S182.1,205,187.2,205z"
	/>
<path class="st2" d="M187.2,256.9h173.2c5.1,0,9.3-4.1,9.3-9.3s-4.1-9.3-9.3-9.3H187.2c-5.1,0-9.3,4.1-9.3,9.3
	S182.1,256.9,187.2,256.9z"/>
<path class="st2" d="M187.2,308.7h173.2c5.1,0,9.3-4.1,9.3-9.3c0-5.1-4.1-9.3-9.3-9.3H187.2c-5.1,0-9.3,4.1-9.3,9.3
	C177.9,304.6,182.1,308.7,187.2,308.7z"/>
<path class="st2" d="M403.5,403.2c-2.4,0-4.8,1-6.5,2.7c-1.7,1.7-2.7,4.1-2.7,6.5s1,4.8,2.7,6.5c1.7,1.7,4.1,2.7,6.5,2.7
	c2.4,0,4.8-1,6.5-2.7c1.7-1.7,2.7-4.1,2.7-6.5s-1-4.8-2.7-6.5C408.3,404.2,405.9,403.2,403.5,403.2z"/>
<polyline class="st3" points="120,231.4 207.1,217.6 211.5,273.9 327.9,273.9 327.9,348.8 281.7,370 "/>
</svg>
