<?xml version="1.0" encoding="utf-8"?>
<!-- Generator: Adobe Illustrator 25.0.0, SVG Export Plug-In . SVG Version: 6.00 Build 0)  -->
<svg version="1.1" id="Layer_3" xmlns="http://www.w3.org/2000/svg" xmlns:xlink="http://www.w3.org/1999/xlink" x="0px" y="0px"
	 viewBox="0 0 512 512" style="enable-background:new 0 0 512 512;" xml:space="preserve">
<style type="text/css">
	.st0{opacity:0;fill:#F6DFC1;}
	.st1{fill:#FFFFFF;}
</style>
<circle class="st0" cx="372.6" cy="372.4" r="128"/>
<path class="st1" d="M-113.9,156.1l-3.4-1l17.6-17.6c42.2-42.2,42.2-111,0-153.2c-34-34-87.2-41.5-129.2-18.1l-23.6,13.1
	C-295,2.9-333.9,32.2-368.2,66.5c-25.8,25.8-48.9,54.4-68.7,85l-15.9,4.5c-46.3,13.2-78.6,56-78.6,104.2
	c0,59.7,48.6,108.3,108.3,108.3h279.4c59.7,0,108.3-48.6,108.3-108.3C-35.4,212.1-67.7,169.3-113.9,156.1L-113.9,156.1z
	 M-116.2,172.1c-1,21.2-2.9,42.4-5.9,63.4c-0.2,1.2-2.3,1.2-2.4,0c-3.2-22.3-5.2-45-6.1-67.6l12.4,3.5
	C-117.6,171.7-116.9,171.9-116.2,172.1L-116.2,172.1z M-221.2-19.8c0.6-0.4,1.3-0.6,2-1c14.3,15.7,28,32.1,40.6,49
	c0.4,0.5,0.3,1.2-0.1,1.6c-0.4,0.4-1.1,0.5-1.6,0.1c-18-13.5-35.5-28.1-52.1-43.4L-221.2-19.8z M-247.1-5.4
	c18.2,17,37.4,33.1,57.2,48c3.1,2.3,6.7,3.4,10.3,3.4c4.4,0,8.9-1.7,12.2-5c6-6,6.7-15.7,1.6-22.5c-11.8-15.8-24.6-31-37.8-45.8
	c32.2-9.9,68.1-1.6,92.5,22.8c36,36,36,94.6,0,130.6l-23.9,23.9l-5-1.4c-44.6-12.8-90.8-19.3-137.1-19.9
	c-14.6-17.8-30.1-35.1-46.3-51.3l-16.1-16.1c7.9-7.2,16-14.2,24.4-20.8l3,3c23.1,23.1,48,44.7,74.1,64.2c3.1,2.3,6.7,3.4,10.3,3.4
	c4.4,0,8.9-1.7,12.2-5c6-6,6.7-15.7,1.6-22.5c-18.9-25.2-39.7-49.2-61.9-71.6C-266.4,5.9-256.9,0.1-247.1-5.4L-247.1-5.4z
	 M-211.4,149.7c5.3,0.8,10.7,1.6,16,2.5c0,31.8-2.3,63.8-6.8,95.2c-0.2,1.2-2.3,1.2-2.4,0c-4.5-31.5-6.8-63.7-6.8-95.5V149.7z
	 M-291.4,144.7c2.7,0,5.3-0.1,8-0.1s5.3,0.1,8,0.1V168c0,31.8-2.3,64-6.8,95.5c-0.2,1.2-2.3,1.2-2.4,0c-4.5-31.5-6.8-63.7-6.8-95.5
	V144.7z M-289.2,21.1c22.4,22.5,43.5,46.7,62.5,72.1c0.4,0.5,0.3,1.2-0.1,1.6s-1.1,0.5-1.6,0.1c-25.5-19.1-49.8-40.2-72.3-62.7
	l-1.6-1.6C-298,27.4-293.6,24.2-289.2,21.1z M-351.1,72.3l16.5,16.5c12.8,12.8,24.9,26.3,36.7,40.1c-5.5,0.2-11,0.4-16.4,0.7
	c-10.8-9.5-21.4-19.4-31.6-29.6l-16.4-16.4c1.9-1.9,3.6-3.9,5.5-5.8C-355,76-353,74.1-351.1,72.3L-351.1,72.3z M-402.5,134
	c2.3,2.3,4.4,4.6,6.6,6.9c-5.8,1.3-11.5,2.6-17.2,4.1c3-4.2,6-8.4,9.1-12.5L-402.5,134z M-377.3,137.1c-4.6-4.9-9.2-9.7-13.9-14.4
	l-3-3c6.7-8.4,13.7-16.5,20.9-24.4l16.1,16.1c6.8,6.8,13.8,13.4,20.9,20C-350.1,132.7-363.7,134.7-377.3,137.1z M-355.4,149.7v2.3
	c0,31.8-2.3,64-6.8,95.5c-0.2,1.2-2.3,1.2-2.4,0c-4.5-31.4-6.8-63.5-6.8-95.2C-366,151.3-360.7,150.5-355.4,149.7L-355.4,149.7z
	 M-436,167.9c-0.9,22.6-3,45.3-6.1,67.6c-0.2,1.2-2.3,1.2-2.4,0c-3-20.9-4.9-42.2-5.9-63.4c0.7-0.2,1.4-0.5,2.1-0.7L-436,167.9z
	 M-143.7,352.5H-423c-50.9,0-92.3-41.4-92.3-92.3c0-34.5,19.5-65.7,49.1-81.5c1.1,19.7,3,39.5,5.8,59c1.2,8.4,8.5,14.8,17,14.8
	s15.8-6.4,17-14.8c3.5-24.6,5.6-49.6,6.5-74.4c10.8-3,21.6-5.7,32.5-8c0.2,31.5,2.4,63.2,6.9,94.4c1.2,8.4,8.5,14.8,17,14.8
	c8.5,0,15.8-6.4,17-14.8c4.6-32.3,7-65.2,7-97.8v-4.3c10.6-1.2,21.3-2,32-2.5V168c0,32.6,2.3,65.5,7,97.8c1.2,8.4,8.5,14.8,17,14.8
	s15.8-6.4,17-14.8c4.6-32.3,7-65.2,7-97.8v-22.8c10.7,0.5,21.4,1.3,32,2.5v4.3c0,32.6,2.3,65.5,7,97.8c1.2,8.4,8.5,14.8,17,14.8
	s15.8-6.4,17-14.8c4.5-31.2,6.7-62.9,6.9-94.4c10.9,2.3,21.8,5,32.5,8c0.8,24.9,3,49.9,6.5,74.4c1.2,8.4,8.5,14.8,17,14.8
	s15.8-6.4,17-14.8c2.8-19.5,4.7-39.3,5.8-59c29.6,15.8,49.1,47,49.1,81.5C-51.4,311.1-92.8,352.5-143.7,352.5L-143.7,352.5z"/>
<g>
	<path class="st1" d="M312.9,441.7c-19.7-3-33.9-19.4-33.9-39v-93.8c50.6-11,86.7-55.2,86.7-107.6c0-10.4-1.5-20.7-4.4-30.6
		c-7.7-26.3-11.4-55.8-11.4-90.1V20c0-4.3-3.5-7.9-7.9-7.9H168.6c-4.3,0-7.9,3.5-7.9,7.9v60.5c0,29.8-4.2,61.3-12.4,93.8
		c-3.4,13.3-4.2,27-2.5,40.8c5.7,46.3,40.6,84,85.8,93.8v93.7c0,19.6-14.3,36-33.9,39c-52.7,8-52.7,22.7-52.7,27.5
		c0,30.6,99,31.5,110.3,31.5c11.3,0,110.3-0.9,110.3-31.5C365.6,464.3,365.6,449.7,312.9,441.7z M291.4,65.8
		c2.1-1.5,3.3-3.9,3.3-6.4V27.9h7.9v52.9l-21.7-5.4c-4-1-8.1,1.2-9.4,5.2l-12.9,38.7l-7.6-3.8c-3.8-1.9-8.3-0.5-10.4,3.1l-9.7,16.9
		l6-36l4.9,4.9c1.9,1.9,4.7,2.7,7.4,2.1c2.7-0.6,4.8-2.6,5.7-5.2l13.3-39.8l16.2,5.4C286.7,67.7,289.4,67.3,291.4,65.8z
		 M255.3,484.9c-54.5,0-88.3-9.7-94.1-15.7c2.6-2.5,13-8,38.9-12c27.4-4.2,47.3-27.1,47.3-54.6V302.4c0-3.9-2.8-7.2-6.7-7.8
		c-41.5-6.4-74.1-39.9-79.2-81.4c-1.5-11.8-0.8-23.6,2.1-35c8.6-33.8,12.9-66.7,12.9-97.7V27.9H279v20.6l-13.3-4.4
		c-4.1-1.4-8.6,0.9-10,5L244,84.2l-6.7-6.7c-2.1-2.1-5.2-2.8-8-1.9c-2.8,0.9-4.9,3.3-5.4,6.2l-15.8,94.5c-0.6,3.8,1.5,7.4,5.1,8.7
		c0.9,0.3,1.8,0.5,2.6,0.5c2.8,0,5.4-1.5,6.8-4l27.8-48.7l9.1,4.5c2,1,4.4,1.1,6.5,0.2c2.1-0.9,3.7-2.6,4.5-4.8l13.4-40.4l24.4,6.1
		c2.4,0.6,4.9,0.1,6.8-1.4c1.9-1.5,3-3.8,3-6.2v-63h15.8v52.6c0,35.8,3.9,66.8,12,94.5c2.5,8.5,3.7,17.3,3.7,26.2
		c0,46.9-33.6,86.1-80,93.3c-3.8,0.6-6.7,3.9-6.7,7.8v100.3c0,27.5,19.9,50.4,47.3,54.6c25.9,3.9,36.2,9.5,38.9,12
		C343.6,475.2,309.8,484.9,255.3,484.9L255.3,484.9z"/>
	<path class="st1" d="M334.1,201.3h-15.8c0,34.8-28.3,63-63,63v15.8C298.8,280.1,334.1,244.7,334.1,201.3z"/>
	<path class="st1" d="M80.4,425c-1.5-2-3.8-3.2-6.3-3.2H34.7c-2.6,0-5.1,1.3-6.6,3.5L12.4,449c-0.9,1.3-1.3,2.8-1.3,4.4V477
		c0,3.5,2.3,6.6,5.7,7.6l55.2,15.8c0.7,0.2,1.4,0.3,2.2,0.3c2.4,0,4.8-1.1,6.3-3.2L104,466c2.1-2.8,2.1-6.6,0-9.4L80.4,425z
		 M71.1,483.7l-44.2-12.6v-15.3l12.1-18.1h31.2l17.7,23.6L71.1,483.7z"/>
	<path class="st1" d="M151.3,377.8l-23.6-31.5c-1.5-2-3.8-3.2-6.3-3.2H82c-2.6,0-5.1,1.3-6.6,3.5l-15.8,23.6
		c-0.9,1.3-1.3,2.8-1.3,4.4v23.6c0,3.5,2.3,6.6,5.7,7.6l55.2,15.8c0.7,0.2,1.4,0.3,2.2,0.3c2.4,0,4.8-1.1,6.3-3.2l23.6-31.5
		C153.4,384.4,153.4,380.6,151.3,377.8L151.3,377.8z M118.3,404.9l-44.2-12.6V377l12.1-18.1h31.2l17.7,23.6L118.3,404.9z"/>
	<path class="st1" d="M498.2,449l-15.8-23.6c-1.5-2.2-3.9-3.5-6.6-3.5h-39.4c-2.5,0-4.8,1.2-6.3,3.2l-23.6,31.5
		c-2.1,2.8-2.1,6.6,0,9.4l23.6,31.5c1.5,2,3.9,3.2,6.3,3.2c0.7,0,1.4-0.1,2.2-0.3l55.2-15.8c3.4-1,5.7-4.1,5.7-7.6v-23.6
		C499.6,451.8,499.1,450.3,498.2,449L498.2,449z M483.8,471.1l-44.2,12.6l-16.8-22.5l17.7-23.6h31.2l12.1,18.1V471.1z"/>
	<path class="st1" d="M351.4,362l-23.6,31.5c-2.1,2.8-2.1,6.6,0,9.4l23.6,31.5c1.5,2,3.9,3.2,6.3,3.2c0.7,0,1.4-0.1,2.2-0.3
		l55.2-15.8c3.4-1,5.7-4.1,5.7-7.6v-23.6c0-1.6-0.5-3.1-1.3-4.4l-15.8-23.6c-1.5-2.2-3.9-3.5-6.6-3.5h-39.4
		C355.3,358.8,352.9,360,351.4,362L351.4,362z M392.9,374.6l12.1,18.1v15.3l-44.2,12.6L344,398.2l17.7-23.6L392.9,374.6z"/>
</g>
</svg>
