<?xml version="1.0" encoding="utf-8"?>
<!-- Generator: Adobe Illustrator 25.0.0, SVG Export Plug-In . SVG Version: 6.00 Build 0)  -->
<svg version="1.1" id="Layer_3" xmlns="http://www.w3.org/2000/svg" xmlns:xlink="http://www.w3.org/1999/xlink" x="0px" y="0px"
	 viewBox="0 0 512 512" style="enable-background:new 0 0 512 512;" xml:space="preserve">
<style type="text/css">
	.st0{opacity:0;fill:#F6DFC1;}
	.st1{fill:#FFFFFF;}
</style>
<circle class="st0" cx="372.6" cy="372.4" r="128"/>
<path class="st1" d="M-113.9,156.1l-3.4-1l17.6-17.6c42.2-42.2,42.2-111,0-153.2c-34-34-87.2-41.5-129.2-18.1l-23.6,13.1
	C-295,2.9-333.9,32.2-368.2,66.5c-25.8,25.8-48.9,54.4-68.7,85l-15.9,4.5c-46.3,13.2-78.6,56-78.6,104.2
	c0,59.7,48.6,108.3,108.3,108.3h279.4c59.7,0,108.3-48.6,108.3-108.3C-35.4,212.1-67.7,169.3-113.9,156.1L-113.9,156.1z
	 M-116.2,172.1c-1,21.2-2.9,42.4-5.9,63.4c-0.2,1.2-2.3,1.2-2.4,0c-3.2-22.3-5.2-45-6.1-67.6l12.4,3.5
	C-117.6,171.7-116.9,171.9-116.2,172.1L-116.2,172.1z M-221.2-19.8c0.6-0.4,1.3-0.6,2-1c14.3,15.7,28,32.1,40.6,49
	c0.4,0.5,0.3,1.2-0.1,1.6c-0.4,0.4-1.1,0.5-1.6,0.1c-18-13.5-35.5-28.1-52.1-43.4L-221.2-19.8z M-247.1-5.4
	c18.2,17,37.4,33.1,57.2,48c3.1,2.3,6.7,3.4,10.3,3.4c4.4,0,8.9-1.7,12.2-5c6-6,6.7-15.7,1.6-22.5c-11.8-15.8-24.6-31-37.8-45.8
	c32.2-9.9,68.1-1.6,92.5,22.8c36,36,36,94.6,0,130.6l-23.9,23.9l-5-1.4c-44.6-12.8-90.8-19.3-137.1-19.9
	c-14.6-17.8-30.1-35.1-46.3-51.3l-16.1-16.1c7.9-7.2,16-14.2,24.4-20.8l3,3c23.1,23.1,48,44.7,74.1,64.2c3.1,2.3,6.7,3.4,10.3,3.4
	c4.4,0,8.9-1.7,12.2-5c6-6,6.7-15.7,1.6-22.5c-18.9-25.2-39.7-49.2-61.9-71.6C-266.4,5.9-256.9,0.1-247.1-5.4L-247.1-5.4z
	 M-211.4,149.7c5.3,0.8,10.7,1.6,16,2.5c0,31.8-2.3,63.8-6.8,95.2c-0.2,1.2-2.3,1.2-2.4,0c-4.5-31.5-6.8-63.7-6.8-95.5V149.7z
	 M-291.4,144.7c2.7,0,5.3-0.1,8-0.1s5.3,0.1,8,0.1V168c0,31.8-2.3,64-6.8,95.5c-0.2,1.2-2.3,1.2-2.4,0c-4.5-31.5-6.8-63.7-6.8-95.5
	V144.7z M-289.2,21.1c22.4,22.5,43.5,46.7,62.5,72.1c0.4,0.5,0.3,1.2-0.1,1.6s-1.1,0.5-1.6,0.1c-25.5-19.1-49.8-40.2-72.3-62.7
	l-1.6-1.6C-298,27.4-293.6,24.2-289.2,21.1z M-351.1,72.3l16.5,16.5c12.8,12.8,24.9,26.3,36.7,40.1c-5.5,0.2-11,0.4-16.4,0.7
	c-10.8-9.5-21.4-19.4-31.6-29.6l-16.4-16.4c1.9-1.9,3.6-3.9,5.5-5.8C-355,76-353,74.1-351.1,72.3L-351.1,72.3z M-402.5,134
	c2.3,2.3,4.4,4.6,6.6,6.9c-5.8,1.3-11.5,2.6-17.2,4.1c3-4.2,6-8.4,9.1-12.5L-402.5,134z M-377.3,137.1c-4.6-4.9-9.2-9.7-13.9-14.4
	l-3-3c6.7-8.4,13.7-16.5,20.9-24.4l16.1,16.1c6.8,6.8,13.8,13.4,20.9,20C-350.1,132.7-363.7,134.7-377.3,137.1z M-355.4,149.7v2.3
	c0,31.8-2.3,64-6.8,95.5c-0.2,1.2-2.3,1.2-2.4,0c-4.5-31.4-6.8-63.5-6.8-95.2C-366,151.3-360.7,150.5-355.4,149.7L-355.4,149.7z
	 M-436,167.9c-0.9,22.6-3,45.3-6.1,67.6c-0.2,1.2-2.3,1.2-2.4,0c-3-20.9-4.9-42.2-5.9-63.4c0.7-0.2,1.4-0.5,2.1-0.7L-436,167.9z
	 M-143.7,352.5H-423c-50.9,0-92.3-41.4-92.3-92.3c0-34.5,19.5-65.7,49.1-81.5c1.1,19.7,3,39.5,5.8,59c1.2,8.4,8.5,14.8,17,14.8
	s15.8-6.4,17-14.8c3.5-24.6,5.6-49.6,6.5-74.4c10.8-3,21.6-5.7,32.5-8c0.2,31.5,2.4,63.2,6.9,94.4c1.2,8.4,8.5,14.8,17,14.8
	c8.5,0,15.8-6.4,17-14.8c4.6-32.3,7-65.2,7-97.8v-4.3c10.6-1.2,21.3-2,32-2.5V168c0,32.6,2.3,65.5,7,97.8c1.2,8.4,8.5,14.8,17,14.8
	s15.8-6.4,17-14.8c4.6-32.3,7-65.2,7-97.8v-22.8c10.7,0.5,21.4,1.3,32,2.5v4.3c0,32.6,2.3,65.5,7,97.8c1.2,8.4,8.5,14.8,17,14.8
	s15.8-6.4,17-14.8c4.5-31.2,6.7-62.9,6.9-94.4c10.9,2.3,21.8,5,32.5,8c0.8,24.9,3,49.9,6.5,74.4c1.2,8.4,8.5,14.8,17,14.8
	s15.8-6.4,17-14.8c2.8-19.5,4.7-39.3,5.8-59c29.6,15.8,49.1,47,49.1,81.5C-51.4,311.1-92.8,352.5-143.7,352.5L-143.7,352.5z"/>
<g>
	<g>
		<g>
			<path class="st1" d="M231.2,279.6h-71V153.4h71c17.4,0,31.5-14.1,31.5-31.5s-14.1-31.5-31.5-31.5h-4.4c2.8-4.8,4.4-10.2,4.4-15.8
				c0-17.4-14.1-31.5-31.5-31.5h-39.4V19.4c0-4.4-3.5-7.9-7.9-7.9h-31.5c-4.4,0-7.9,3.5-7.9,7.9v23.7H73.5
				C56.1,43.1,42,57.2,42,74.6c0,5.6,1.5,11,4.4,15.8H42c-17.4,0-31.5,14.1-31.5,31.5s14.1,31.5,31.5,31.5h71v126.2H42
				c-17.4,0-31.5,14.1-31.5,31.5c0,17.4,14.1,31.5,31.5,31.5h4.4c-2.8,4.8-4.4,10.2-4.4,15.8c0,17.4,14.1,31.5,31.5,31.5H113v23.7
				c0,4.4,3.5,7.9,7.9,7.9h31.5c4.4,0,7.9-3.5,7.9-7.9V390h39.4c17.4,0,31.5-14.1,31.5-31.5c0-5.6-1.5-11-4.4-15.8h4.4
				c17.4,0,31.5-14.1,31.5-31.5C262.8,293.7,248.6,279.6,231.2,279.6z M128.7,27.3h15.8v15.8h-15.8V27.3z M73.5,58.8h126.2
				c8.7,0,15.8,7.1,15.8,15.8s-7.1,15.8-15.8,15.8H73.5c-8.7,0-15.8-7.1-15.8-15.8S64.8,58.8,73.5,58.8z M42,137.7
				c-8.7,0-15.8-7.1-15.8-15.8s7.1-15.8,15.8-15.8h189.2c8.7,0,15.8,7.1,15.8,15.8s-7.1,15.8-15.8,15.8H42z M144.5,153.4v126.2
				h-15.8V153.4H144.5z M144.5,405.7h-15.8V390h15.8V405.7z M199.7,374.2H73.5c-8.7,0-15.8-7.1-15.8-15.8c0-8.7,7.1-15.8,15.8-15.8
				h126.2c8.7,0,15.8,7.1,15.8,15.8C215.5,367.1,208.4,374.2,199.7,374.2z M231.2,326.9H42c-8.7,0-15.8-7.1-15.8-15.8
				c0-8.7,7.1-15.8,15.8-15.8h189.2c8.7,0,15.8,7.1,15.8,15.8C247,319.8,239.9,326.9,231.2,326.9z"/>
		</g>
	</g>
	<g>
		<g>
			<path class="st1" d="M467.8,358.4h-71V232.3h71c17.4,0,31.5-14.1,31.5-31.5s-14.1-31.5-31.5-31.5h-4.4c2.8-4.8,4.4-10.2,4.4-15.8
				c0-17.4-14.1-31.5-31.5-31.5h-39.4V98.3c0-4.4-3.5-7.9-7.9-7.9h-31.5c-4.4,0-7.9,3.5-7.9,7.9v23.7h-39.4
				c-17.4,0-31.5,14.1-31.5,31.5c0,5.6,1.5,11,4.4,15.8h-4.4c-17.4,0-31.5,14.1-31.5,31.5s14.1,31.5,31.5,31.5h71v126.2h-71
				c-17.4,0-31.5,14.1-31.5,31.5s14.1,31.5,31.5,31.5h4.4c-2.8,4.8-4.4,10.2-4.4,15.8c0,17.4,14.1,31.5,31.5,31.5h39.4v23.7
				c0,4.4,3.5,7.9,7.9,7.9h31.5c4.4,0,7.9-3.5,7.9-7.9v-23.7h39.4c17.4,0,31.5-14.1,31.5-31.5c0-5.6-1.5-11-4.4-15.8h4.4
				c17.4,0,31.5-14.1,31.5-31.5S485.2,358.4,467.8,358.4z M365.3,106.1H381v15.8h-15.8V106.1z M310.1,137.7h126.2
				c8.7,0,15.8,7.1,15.8,15.8c0,8.7-7.1,15.8-15.8,15.8H310.1c-8.7,0-15.8-7.1-15.8-15.8C294.3,144.7,301.4,137.7,310.1,137.7z
				 M278.5,216.5c-8.7,0-15.8-7.1-15.8-15.8s7.1-15.8,15.8-15.8h189.2c8.7,0,15.8,7.1,15.8,15.8s-7.1,15.8-15.8,15.8H278.5z
				 M381,232.3v126.2h-15.8V232.3H381z M381,484.6h-15.8v-15.8H381V484.6z M436.2,453.1H310.1c-8.7,0-15.8-7.1-15.8-15.8
				s7.1-15.8,15.8-15.8h126.2c8.7,0,15.8,7.1,15.8,15.8S444.9,453.1,436.2,453.1z M467.8,405.7H278.5c-8.7,0-15.8-7.1-15.8-15.8
				s7.1-15.8,15.8-15.8h189.2c8.7,0,15.8,7.1,15.8,15.8S476.5,405.7,467.8,405.7z"/>
		</g>
	</g>
</g>
</svg>
